<?xml version="1.0" standalone="no"?>
<!DOCTYPE svg PUBLIC "-//W3C//DTD SVG 1.1//EN" "http://www.w3.org/Graphics/SVG/1.1/DTD/svg11.dtd" >
<svg>
<metadata>
Created by FontForge 20090622 at Wed Jan 20 04:48:05 2016
 By ffonts
Copyright 1990-1993 Bitstream Inc.  All rights reserved.
</metadata>
<defs>
<font id="CompactaBT-Roman" horiz-adv-x="782" >
  <font-face 
    font-family="Compacta BT"
    font-weight="400"
    font-stretch="condensed"
    units-per-em="2048"
    panose-1="2 11 6 8 3 7 2 6 2 4"
    ascent="1638"
    descent="-410"
    x-height="1356"
    cap-height="1663"
    bbox="-211 -483 2048 2013"
    underline-thickness="178"
    underline-position="-97"
    unicode-range="U+0020-U+F002"
  />
<missing-glyph horiz-adv-x="1229" 
d="M102 -362v1806h1024v-1806h-1024zM217 -248h795v1577h-795v-1577z" />
    <glyph glyph-name=".notdef" horiz-adv-x="1229" 
d="M102 -362v1806h1024v-1806h-1024zM217 -248h795v1577h-795v-1577z" />
    <glyph glyph-name=".null" horiz-adv-x="0" 
 />
    <glyph glyph-name="nonmarkingreturn" horiz-adv-x="391" 
 />
    <glyph glyph-name="space" unicode=" " horiz-adv-x="391" 
 />
    <glyph glyph-name="exclam" unicode="!" horiz-adv-x="403" 
d="M59 281h285v-281h-285v281zM61 1663h283l-47 -1262h-188z" />
    <glyph glyph-name="quotedbl" unicode="&#x22;" horiz-adv-x="643" 
d="M395 1436h164v-557h-164v557zM86 1436h164v-557h-164v557z" />
    <glyph glyph-name="numbersign" unicode="#" horiz-adv-x="1575" 
d="M709 852l-91 -254h256l91 254h-256zM735 1460h191l-154 -436h250l156 436h190l-154 -436h291l-59 -172h-293l-90 -252h309l-61 -172h-307l-156 -434h-191l156 434h-252l-158 -434h-190l156 434h-299l61 172h297l90 252h-315l61 172h316z" />
    <glyph glyph-name="dollar" unicode="$" 
d="M299 1786h188v-117q135 -8 183.5 -65.5t48.5 -264.5v-249h-283v288q0 40 -10 55t-35 15q-22 0 -32.5 -16.5t-10.5 -53.5v-254q0 -48 13 -66.5t51 -39.5l174 -100q71 -41 102 -96.5t31 -155.5v-342q0 -210 -47.5 -266t-184.5 -64v-121h-188v119q-138 8 -187 68t-49 264
v362h285v-403q0 -37 11 -53.5t34 -16.5q24 0 34.5 15.5t10.5 54.5v350q0 43 -11 61.5t-52 42.5l-185 107q-68 39 -97.5 96.5t-29.5 163.5v235q0 202 48.5 262t187.5 68v117z" />
    <glyph glyph-name="percent" unicode="%" horiz-adv-x="1380" 
d="M1030 678v-469q0 -23 10.5 -35t30.5 -12q21 0 31 11.5t10 35.5v469q0 26 -10 37.5t-33 11.5q-20 0 -29.5 -12t-9.5 -37zM831 659q0 160 43 199t197 39q156 0 198 -41.5t42 -196.5v-428q0 -158 -43 -198.5t-197 -40.5t-197 40t-43 199v428zM268 983q0 -23 10.5 -35
t30.5 -12q22 0 31.5 11t9.5 36v469q0 25 -10 36t-33 11q-20 0 -29.5 -11t-9.5 -36v-469zM70 1006v428q0 160 43 198.5t196 38.5q155 0 197.5 -41t42.5 -196v-428q0 -159 -43 -199.5t-197 -40.5q-152 0 -195.5 40t-43.5 200zM508 -8h-164l528 1679h164z" />
    <glyph glyph-name="ampersand" unicode="&#x26;" horiz-adv-x="801" 
d="M406 780q-35 0 -47.5 -13.5t-12.5 -49.5v-422q0 -39 13 -56.5t40 -17.5h39v559h-32zM342 1663h287v-217h-211q-41 0 -56.5 -14t-15.5 -56v-301q0 -37 11 -50t44 -13h35v293h277v-293h88v-234h-88v-778h-275q-241 0 -308 60.5t-67 271.5v309q0 123 29.5 179t100.5 79
q-69 19 -99.5 76t-30.5 170v188q0 216 58 273t221 57z" />
    <glyph glyph-name="quotesingle" unicode="'" horiz-adv-x="334" 
d="M86 1436h164v-557h-164v557z" />
    <glyph glyph-name="parenleft" unicode="(" horiz-adv-x="434" 
d="M344 25q0 -55 15 -70.5t57 -20.5v-219h-101q-137 0 -190 58t-53 219v1403q0 160 53.5 218t189.5 58h101l-1 -219q-40 -3 -55.5 -17.5t-15.5 -72.5v-1337z" />
    <glyph glyph-name="parenright" unicode=")" horiz-adv-x="434" 
d="M362 -8q0 -160 -53.5 -218.5t-189.5 -58.5h-101v219q38 2 55 18t17 52v21v1366q0 29 -17.5 44t-53.5 17l-1 219h101q137 0 190 -57.5t53 -218.5v-1403z" />
    <glyph glyph-name="asterisk" unicode="*" horiz-adv-x="721" 
d="M281 1663h161v-211l197 66l49 -154l-201 -64l125 -167l-131 -99l-123 172l-120 -172l-132 94l127 170l-200 66l49 154l199 -66v211z" />
    <glyph glyph-name="plus" unicode="+" horiz-adv-x="1706" 
d="M768 1221h170v-527h514v-166h-514v-528h-170v528h-514v166h514v527z" />
    <glyph glyph-name="comma" unicode="," horiz-adv-x="391" 
d="M78 293h235v-311q0 -142 -54.5 -203.5t-180.5 -62.5v134q55 5 77.5 30t22.5 83v37h-100v293z" />
    <glyph glyph-name="hyphen" unicode="-" horiz-adv-x="512" 
d="M55 793h400v-220h-400v220z" />
    <glyph glyph-name="period" unicode="." horiz-adv-x="391" 
d="M78 293h235v-293h-235v293z" />
    <glyph glyph-name="slash" unicode="/" horiz-adv-x="543" 
d="M375 1665h160l-385 -1855h-162z" />
    <glyph glyph-name="zero" unicode="0" 
d="M346 1378v-1093q0 -38 11 -54t36 -16q24 0 33.5 15t9.5 55v1093q0 39 -11 55.5t-36 16.5q-23 0 -33 -16.5t-10 -55.5zM63 1339q0 221 59.5 276.5t268.5 55.5q213 0 271.5 -57.5t58.5 -274.5v-1015q0 -219 -59 -275.5t-267 -56.5q-214 0 -273 57.5t-59 274.5v1015z" />
    <glyph glyph-name="one" unicode="1" horiz-adv-x="557" 
d="M213 1663h229v-1663h-284v1227h-144l1 221q85 9 137.5 66t60.5 149z" />
    <glyph glyph-name="two" unicode="2" 
d="M723 1339v-213q0 -60 -11.5 -113t-37.5 -114l-295 -674h344v-225h-655v225l325 742q24 52 32 90t9 85v236q0 41 -10 56.5t-35 15.5q-23 0 -33 -16.5t-10 -55.5v-288h-283v249q0 224 59.5 278t268.5 54q217 0 274.5 -61.5t57.5 -270.5z" />
    <glyph glyph-name="three" unicode="3" 
d="M719 1339v-180q0 -124 -31 -182t-104 -80q75 -23 105 -76t30 -186v-311q0 -219 -61.5 -275.5t-264.5 -56.5q-212 0 -272 57.5t-60 274.5v352h285v-391q0 -39 10.5 -54.5t34.5 -15.5q23 0 33 15.5t10 54.5v424q0 33 -15.5 51t-43.5 18h-101v240h101q34 0 46.5 16t12.5 66
v278q0 40 -10.5 56t-34.5 16q-23 0 -33 -16t-10 -56v-256h-285v217q0 221 61 276.5t271 55.5q205 0 265.5 -58.5t60.5 -273.5z" />
    <glyph glyph-name="four" unicode="4" 
d="M369 1368l-88 -670h108v670h-20zM240 1663h419v-965h78v-219h-78v-479h-278v479h-356v219z" />
    <glyph glyph-name="five" unicode="5" 
d="M66 1663h641v-217h-357v-295q38 30 78.5 44.5t85.5 14.5q107 0 158 -68.5t51 -211.5v-606q0 -219 -61 -275.5t-263 -56.5q-213 0 -273 58t-60 274v374h284v-413q0 -40 10 -55t35 -15q23 0 33 15t10 55v612q0 38 -10 54t-33 16q-20 0 -32.5 -14.5t-12.5 -37.5v-55h-284
v803z" />
    <glyph glyph-name="six" unicode="6" 
d="M436 692q0 38 -10.5 54t-34.5 16t-33.5 -13.5t-9.5 -56.5v-407q0 -41 10 -55.5t33 -14.5q25 0 35 15t10 55v407zM721 1339v-249h-285v290q0 39 -10.5 54.5t-34.5 15.5q-23 0 -33 -14.5t-10 -55.5v-436q28 30 68.5 46t87.5 16q108 0 162.5 -73.5t54.5 -219.5v-389
q0 -219 -60.5 -275.5t-263.5 -56.5q-212 0 -273 57.5t-61 274.5v1015q0 218 61.5 275t272.5 57q203 0 263.5 -57.5t60.5 -274.5z" />
    <glyph glyph-name="seven" unicode="7" horiz-adv-x="702" 
d="M68 1663h565v-217l-258 -1446h-291l264 1446h-280v217z" />
    <glyph glyph-name="eight" unicode="8" 
d="M346 1098q0 -37 11 -53.5t34 -16.5q25 0 35 15.5t10 54.5v280q0 38 -10.5 55t-34.5 17t-34.5 -15t-10.5 -57v-280zM346 713v-426q0 -38 11 -55t34 -17q24 0 34.5 16t10.5 56v426q0 36 -10.5 52.5t-34.5 16.5q-25 0 -35 -14t-10 -55zM193 901q-69 14 -99.5 68.5
t-30.5 167.5v202q0 221 61.5 276.5t270.5 55.5q205 0 265.5 -58.5t60.5 -273.5v-202q0 -111 -30.5 -165.5t-100.5 -70.5q72 -24 101.5 -78t29.5 -170v-329q0 -219 -61 -275.5t-273 -56.5q-202 0 -263 57t-61 275v329q0 118 29 172t101 76z" />
    <glyph glyph-name="nine" unicode="9" 
d="M346 971q0 -38 10.5 -54t34.5 -16t33.5 14.5t9.5 55.5v407q0 41 -10 56.5t-33 15.5q-24 0 -34.5 -15t-10.5 -57v-407zM434 719q-30 -30 -69.5 -46t-85.5 -16q-109 0 -163.5 73.5t-54.5 219.5v389q0 219 62 275.5t264 56.5q212 0 272 -57.5t60 -274.5v-1015
q0 -218 -61 -275t-273 -57q-203 0 -263.5 57.5t-60.5 274.5v249h285v-288q0 -39 10.5 -55.5t34.5 -16.5q23 0 33 15.5t10 56.5v434z" />
    <glyph glyph-name="colon" unicode=":" horiz-adv-x="414" 
d="M88 293h238v-293h-238v293zM88 1276h238v-293h-238v293z" />
    <glyph glyph-name="semicolon" unicode=";" horiz-adv-x="414" 
d="M88 293h238v-311q0 -142 -56 -203.5t-182 -62.5v134q55 5 77.5 30t22.5 83v37h-100v293zM88 1276h238v-293h-238v293z" />
    <glyph glyph-name="less" unicode="&#x3c;" horiz-adv-x="1706" 
d="M1442 1176v-185l-934 -381l934 -381v-182l-1178 483v160z" />
    <glyph glyph-name="equal" unicode="=" horiz-adv-x="1706" 
d="M254 487h1198v-165h-1198v165zM254 901h1198v-168h-1198v168z" />
    <glyph glyph-name="greater" unicode="&#x3e;" horiz-adv-x="1706" 
d="M264 1176l1178 -486v-160l-1178 -483v182l934 381l-934 381v185z" />
    <glyph glyph-name="question" unicode="?" horiz-adv-x="772" 
d="M250 385v213q0 95 48 189q5 9 7 14l101 205q13 29 19.5 62t6.5 75v235q0 40 -11 56t-36 16q-24 0 -34.5 -16.5t-10.5 -55.5v-291h-283v252q0 215 59.5 273.5t260.5 58.5q211 0 274.5 -60.5t63.5 -246.5v-215q0 -70 -13.5 -130.5t-44.5 -123.5l-88 -183l-6 -12
q-31 -57 -31 -139v-176h-282zM248 276h284v-276h-284v276z" />
    <glyph glyph-name="at" unicode="@" horiz-adv-x="2048" 
d="M1174 283q-55 -87 -128 -127.5t-176 -40.5q-152 0 -232.5 86.5t-80.5 249.5q0 233 138 395t333 162q89 0 149 -34.5t99 -107.5l55 107h154l-148 -586q-1 -5 -2 -12q-6 -28 -6 -37q0 -38 26.5 -61t69.5 -23q51 0 107.5 30.5t105.5 84.5q72 76 110 177.5t38 215.5
q0 253 -187 411t-489 158q-138 0 -256 -31t-215 -94q-181 -113 -279 -291t-98 -395q0 -312 209.5 -499t558.5 -187q166 0 323.5 49t291.5 142l67 -99q-149 -113 -318.5 -170t-355.5 -57q-192 0 -351 48t-281 142q-155 118 -231.5 275.5t-76.5 357.5q0 165 52 313.5
t153 272.5q147 179 353.5 272t459.5 93q166 0 315 -45.5t255 -127.5q132 -102 198 -235.5t66 -300.5q0 -162 -65 -302t-185 -237q-69 -55 -150 -83.5t-168 -28.5q-106 0 -157 40.5t-51 125.5v4zM1233 707q-14 84 -61.5 130t-122.5 46q-127 0 -217.5 -128.5t-90.5 -310.5
q0 -98 45.5 -151t128.5 -53q90 0 163.5 66.5t99.5 172.5z" />
    <glyph glyph-name="A" unicode="A" horiz-adv-x="784" 
d="M383 1333l-45 -758h96l-43 758h-8zM197 1663h378l168 -1663h-276l-21 354h-118l-21 -354h-274z" />
    <glyph glyph-name="B" unicode="B" horiz-adv-x="797" 
d="M356 772l1 -553q5 -1 10.5 -1.5t15.5 -0.5q35 0 49 16.5t14 57.5v411q0 40 -14.5 56t-50.5 16q-4 0 -12.5 -1t-12.5 -1zM356 1446v-430q4 0 12.5 -1t12.5 -1q36 0 50.5 16.5t14.5 56.5v289q0 38 -13 54t-46 16h-31zM72 1663h350q180 0 243.5 -60t63.5 -235v-219
q0 -108 -29 -165t-96 -85q69 -31 97 -86t28 -172v-305q0 -218 -65 -277t-269 -59h-323v1663z" />
    <glyph glyph-name="C" unicode="C" horiz-adv-x="772" 
d="M721 1341v-245h-285v284q0 40 -11 56t-36 16q-23 0 -33 -16.5t-10 -55.5v-1099q0 -38 11 -54t36 -16q24 0 33.5 15t9.5 55v424h285v-383q0 -220 -59 -277t-267 -57q-214 0 -273 57.5t-59 276.5v1019q0 222 58.5 277t269.5 55q215 0 272.5 -57t57.5 -275z" />
    <glyph glyph-name="D" unicode="D" horiz-adv-x="793" 
d="M356 1446v-1229h25q38 0 50.5 14t12.5 74v10v1041q0 62 -13 76t-54 14h-21zM72 1663h348q196 0 252.5 -58t56.5 -280v-985q0 -225 -56.5 -282.5t-250.5 -57.5h-350v1663z" />
    <glyph glyph-name="E" unicode="E" horiz-adv-x="590" 
d="M72 1663h454v-217h-170v-424h170v-219h-170v-584h170v-219h-454v1663z" />
    <glyph glyph-name="F" unicode="F" horiz-adv-x="582" 
d="M76 1663h454v-217h-170v-424h170v-219h-170v-803h-284v1663z" />
    <glyph glyph-name="G" unicode="G" horiz-adv-x="788" 
d="M63 1339q0 221 61 277.5t273 56.5q208 0 268 -58t60 -276v-245h-285v286q0 43 -10.5 57.5t-36.5 14.5q-25 0 -36 -15t-11 -57v-1099q0 -39 11.5 -54.5t37.5 -15.5q25 0 35 14.5t10 55.5v362h-43v219h328v-862h-119l-47 96q-45 -60 -99 -84t-145 -24q-135 0 -193.5 65
t-58.5 221v1065z" />
    <glyph glyph-name="H" unicode="H" horiz-adv-x="801" 
d="M72 1663h282v-635h92v635h283v-1663h-283v809h-92v-809h-282v1663z" />
    <glyph glyph-name="I" unicode="I" horiz-adv-x="428" 
d="M72 1663h284v-1663h-284v1663z" />
    <glyph glyph-name="J" unicode="J" horiz-adv-x="743" 
d="M385 1663h285v-1344q0 -217 -58.5 -274t-263.5 -57q-194 0 -252.5 57.5t-58.5 273.5v371h258v-409q0 -39 11 -55.5t36 -16.5q23 0 33 15.5t10 56.5v1382z" />
    <glyph glyph-name="K" unicode="K" 
d="M72 1663h276v-664l10 2l103 662h280l-161 -735l182 -928h-285l-119 807h-10v-807h-276v1663z" />
    <glyph glyph-name="L" unicode="L" horiz-adv-x="555" 
d="M72 1663h284v-1444h170v-219h-454v1663z" />
    <glyph glyph-name="M" unicode="M" horiz-adv-x="1030" 
d="M72 1663h331l105 -797h14l105 797h331v-1663h-253l10 983h-17l-108 -983h-150l-108 983h-17l11 -983h-254v1663z" />
    <glyph glyph-name="N" unicode="N" horiz-adv-x="809" 
d="M72 1663h254l155 -829h13l-5 829h246v-1663h-252l-157 852h-13l6 -852h-247v1663z" />
    <glyph glyph-name="O" unicode="O" 
d="M346 1380v-1099q0 -38 11 -54t36 -16q24 0 33.5 15t9.5 55v1099q0 40 -11 56t-36 16q-23 0 -33 -16.5t-10 -55.5zM63 1341q0 222 58.5 277t269.5 55q215 0 272.5 -57t57.5 -275v-1019q0 -220 -59 -277t-267 -57q-214 0 -273 57.5t-59 276.5v1019z" />
    <glyph glyph-name="P" unicode="P" horiz-adv-x="780" 
d="M356 1446v-639h25q40 0 52.5 15.5t12.5 84.5v434q0 75 -13 90t-56 15h-21zM72 1663h348q194 0 251.5 -58t57.5 -280v-397q0 -225 -58 -282.5t-249 -57.5h-66v-588h-284v1663z" />
    <glyph glyph-name="Q" unicode="Q" 
d="M346 283q0 -37 11 -53.5t34 -16.5q25 0 35 15.5t10 54.5v1099q0 39 -10.5 54.5t-34.5 15.5q-25 0 -35 -14.5t-10 -55.5v-1099zM63 324v1017q0 219 61.5 275.5t270.5 56.5q205 0 265.5 -58.5t60.5 -273.5v-1017q0 -203 -48 -261.5t-181 -66.5l12 -8q47 -8 79 -11.5
t60 -3.5q16 0 56 4h6l-111 -178q-86 15 -163 62.5t-152 132.5q-125 14 -170.5 72t-45.5 258z" />
    <glyph glyph-name="R" unicode="R" horiz-adv-x="797" 
d="M356 1446v-508q5 0 13.5 -1t11.5 -1q38 0 51.5 17.5t13.5 68.5v319q0 75 -14 90t-57 15h-19zM72 1663h348q186 0 247.5 -62.5t61.5 -275.5v-217q0 -140 -28.5 -197t-100.5 -90q70 -27 99.5 -83.5t29.5 -172.5v-565h-283v616q0 41 -15.5 58.5t-51.5 17.5q-4 0 -11.5 -1
t-11.5 -1v-690h-284v1663z" />
    <glyph glyph-name="S" unicode="S" horiz-adv-x="780" 
d="M717 1341v-251h-283v292q0 38 -11 54t-36 16q-22 0 -31.5 -15.5t-9.5 -54.5v-258q0 -45 13 -64.5t51 -41.5l174 -100q71 -41 102 -96.5t31 -155.5v-347q0 -222 -58 -276.5t-272 -54.5q-209 0 -268.5 57.5t-59.5 273.5v367h287v-405q0 -38 11.5 -55t35.5 -17
q22 0 31.5 16.5t9.5 55.5v352q0 45 -12 63t-51 41l-183 107q-69 40 -99 98t-30 162v237q0 216 59 274t271 58q209 0 268.5 -55.5t59.5 -276.5z" />
    <glyph glyph-name="T" unicode="T" horiz-adv-x="600" 
d="M18 1663h564v-221h-140v-1442h-284v1442h-140v221z" />
    <glyph glyph-name="U" unicode="U" horiz-adv-x="788" 
d="M66 1663h284v-1382q0 -39 10.5 -55.5t34.5 -16.5t33.5 15.5t9.5 56.5v1382h285v-1344q0 -217 -58.5 -274t-267.5 -57q-214 0 -272.5 57.5t-58.5 273.5v1344z" />
    <glyph glyph-name="V" unicode="V" horiz-adv-x="719" 
d="M18 1663h275l61 -1126h11l69 1126h268l-178 -1663h-327z" />
    <glyph glyph-name="W" unicode="W" horiz-adv-x="1071" 
d="M-16 1663h276l64 -979h14l76 979h248l88 -979h14l51 979h268l-157 -1663h-293l-82 977h-14l-80 -977h-297z" />
    <glyph glyph-name="X" unicode="X" horiz-adv-x="764" 
d="M45 1663h281l71 -596h11l59 596h254l-117 -778l131 -885h-280l-76 741h-8l-72 -741h-262l127 885z" />
    <glyph glyph-name="Y" unicode="Y" horiz-adv-x="680" 
d="M-4 1663h276l74 -641l68 641h268l-188 -991v-672h-295v672z" />
    <glyph glyph-name="Z" unicode="Z" horiz-adv-x="618" 
d="M63 1663h500v-225l-239 -1205h239v-233h-530v233l239 1205h-209v225z" />
    <glyph glyph-name="bracketleft" unicode="[" horiz-adv-x="449" 
d="M344 -57h88v-219h-360v1939h360v-219h-88v-1501z" />
    <glyph glyph-name="backslash" unicode="\" horiz-adv-x="543" 
d="M-6 1665h160l387 -1855h-162z" />
    <glyph glyph-name="bracketright" unicode="]" horiz-adv-x="449" 
d="M18 1663h359v-1939h-359v219h86v1501h-86v219z" />
    <glyph glyph-name="asciicircum" unicode="^" horiz-adv-x="2048" 
d="M915 1460h218l495 -561h-207l-397 397l-399 -397h-207z" />
    <glyph glyph-name="underscore" unicode="_" horiz-adv-x="1024" 
d="M0 -311h1024v-172h-1024v172z" />
    <glyph glyph-name="grave" unicode="`" horiz-adv-x="1024" 
d="M299 1651h225l80 -217h-180z" />
    <glyph glyph-name="a" unicode="a" horiz-adv-x="678" 
d="M375 625l-41 -25q-19 -11 -28 -27.5t-9 -40.5v-18v-264q0 -38 9.5 -54t31.5 -16q20 0 28.5 14.5t8.5 55.5v375zM621 1102v-1102h-246v55q-31 -30 -69.5 -46.5t-80.5 -16.5q-94 0 -133 62t-39 243v231q0 79 26 123.5t91 83.5l205 119v252q0 39 -9 53.5t-30 14.5t-30 -15.5
t-9 -52.5v-207h-244v203q0 160 55 211t228 51q174 0 229.5 -52.5t55.5 -209.5z" />
    <glyph glyph-name="b" unicode="b" horiz-adv-x="694" 
d="M389 1094q0 35 -8.5 50t-28.5 15q-22 0 -31.5 -13.5t-9.5 -51.5v-832q0 -37 9 -51t30 -14t30 14t9 51v832zM68 1663h243v-365q32 32 68 49t72 17q99 0 140.5 -65t41.5 -252v-736q0 -182 -41 -250.5t-135 -68.5q-41 0 -78 16.5t-68 48.5v-57h-243v1663z" />
    <glyph glyph-name="c" unicode="c" horiz-adv-x="672" 
d="M621 1102v-299h-246v303q0 39 -9 53.5t-30 14.5q-22 0 -30.5 -13.5t-8.5 -54.5v-856q0 -39 9 -54.5t30 -15.5t30 14t9 56v332h246v-330q0 -158 -55.5 -209t-233.5 -51q-171 0 -225 51.5t-54 208.5v850q0 160 55 211t228 51q174 0 229.5 -52.5t55.5 -209.5z" />
    <glyph glyph-name="d" unicode="d" horiz-adv-x="694" 
d="M383 1094q0 38 -8.5 51.5t-30.5 13.5q-20 0 -29.5 -15.5t-9.5 -49.5v-832q0 -37 8.5 -51t28.5 -14q22 0 31.5 15t9.5 50v832zM383 1663h244v-1663h-244v57q-29 -30 -65.5 -46.5t-73.5 -16.5q-100 0 -141.5 64.5t-41.5 252.5v736q0 188 42 252.5t143 64.5q35 0 71 -17.5
t66 -48.5v365z" />
    <glyph glyph-name="e" unicode="e" horiz-adv-x="672" 
d="M297 825h78v281q0 37 -8.5 52.5t-28.5 15.5q-23 0 -32 -14t-9 -54v-281zM297 637v-387q0 -39 9 -54.5t30 -15.5t30 14t9 56v252h246v-250q0 -158 -55.5 -209t-233.5 -51q-171 0 -225 51.5t-54 208.5v850q0 160 55 211t228 51q174 0 229.5 -52.5t55.5 -209.5v-465h-324z
" />
    <glyph glyph-name="f" unicode="f" horiz-adv-x="440" 
d="M311 1671h125v-186h-65q-23 0 -34 -16.5t-11 -49.5v-63h110v-189h-110v-1167h-246v1167h-64v189h64v65q0 146 51 198t180 52z" />
    <glyph glyph-name="g" unicode="g" horiz-adv-x="686" 
d="M375 1094q0 36 -9 50.5t-30 14.5t-30 -14t-9 -51v-830q0 -37 8.5 -51t28.5 -14q23 0 32 13t9 52v830zM375 1298v56h243v-1438q0 -133 -50.5 -183t-196.5 -50h-308v188h244q7 0 15.5 1t9.5 1q24 0 33.5 11.5t9.5 45.5v127q-29 -30 -65.5 -46.5t-73.5 -16.5q-99 0 -141 65
t-42 252v736q0 188 42 252.5t143 64.5q35 0 71 -17.5t66 -48.5z" />
    <glyph glyph-name="h" unicode="h" horiz-adv-x="700" 
d="M66 1663h245v-365q33 33 67.5 49.5t70.5 16.5q100 0 142 -65.5t42 -251.5v-1047h-246v1096q0 37 -8.5 51t-28.5 14q-21 0 -30 -14t-9 -51v-1096h-245v1663z" />
    <glyph glyph-name="i" unicode="i" horiz-adv-x="379" 
d="M68 1356h243v-1356h-243v1356zM68 1663h243v-195h-243v195z" />
    <glyph glyph-name="j" unicode="j" horiz-adv-x="379" 
d="M313 -41q0 -180 -50 -228t-191 -48h-150v186h80q33 0 49.5 14t16.5 41v19v1413h245v-1397zM68 1663h245v-195h-245v195z" />
    <glyph glyph-name="k" unicode="k" horiz-adv-x="682" 
d="M68 1663h229v-803h14l95 496h231l-131 -596l160 -760h-250l-105 641h-14v-641h-229v1663z" />
    <glyph glyph-name="l" unicode="l" horiz-adv-x="379" 
d="M68 1663h243v-1663h-243v1663z" />
    <glyph glyph-name="m" unicode="m" horiz-adv-x="1018" 
d="M608 1286q32 38 73 58t87 20q96 0 137 -66.5t41 -234.5v-1063h-239v1096q0 36 -9 50.5t-30 14.5q-22 0 -30.5 -13.5t-8.5 -51.5v-1096h-240v1096q0 37 -9 51t-30 14t-30 -14t-9 -51v-1096h-239v1356h239v-66q32 38 69.5 56t84.5 18q38 0 76 -20.5t67 -57.5z" />
    <glyph glyph-name="n" unicode="n" horiz-adv-x="700" 
d="M633 1047v-1047h-244v1096q0 36 -9 50.5t-30 14.5t-30 -14t-9 -51v-1096h-243v1354h243v-56q32 32 68 49t72 17q99 0 140.5 -65t41.5 -252z" />
    <glyph glyph-name="o" unicode="o" horiz-adv-x="672" 
d="M297 1106v-856q0 -37 10 -53.5t31 -16.5q20 0 28.5 13.5t8.5 56.5v856q0 37 -8.5 52.5t-28.5 15.5q-23 0 -32 -14t-9 -54zM53 1102q0 160 55 211t228 51q174 0 229.5 -52.5t55.5 -209.5v-850q0 -158 -55.5 -209t-233.5 -51q-171 0 -225 51.5t-54 208.5v850z" />
    <glyph glyph-name="p" unicode="p" horiz-adv-x="686" 
d="M633 1047v-736q0 -182 -41 -250.5t-135 -68.5q-41 0 -78 16.5t-68 48.5v-374h-243v1671h243v-56q32 32 68 49t72 17q99 0 140.5 -65t41.5 -252zM389 1094q0 8 -1 16.5t-1 9.5q0 16 -10 27.5t-25 11.5q-22 0 -31.5 -15t-9.5 -50v-832q0 -37 9 -51t30 -14t30 15t9 50v832z
" />
    <glyph glyph-name="q" unicode="q" horiz-adv-x="686" 
d="M375 1094q0 36 -9 50.5t-30 14.5t-30 -14t-9 -51v-832q0 -36 9 -50.5t30 -14.5t30 14.5t9 50.5v832zM375 1298v56h243v-1671h-243v374q-29 -30 -65.5 -46.5t-73.5 -16.5q-99 0 -141 65t-42 252v736q0 188 42 252.5t143 64.5q35 0 71 -17.5t66 -48.5z" />
    <glyph glyph-name="r" unicode="r" horiz-adv-x="647" 
d="M621 1047v-242h-232v291q0 36 -9 50.5t-30 14.5t-30 -14t-9 -51v-1096h-243v1354h243v-56q29 31 65.5 48.5t69.5 17.5q95 0 135 -66t40 -251z" />
    <glyph glyph-name="s" unicode="s" horiz-adv-x="670" 
d="M51 498h246v-252q0 -36 8.5 -51t28.5 -15q21 0 29.5 13.5t9.5 52.5v239q0 47 -16.5 67t-61.5 46l-115 61q-72 39 -100.5 84t-28.5 162v176q0 173 55 228t242 55q168 0 219 -51.5t51 -255.5v-156h-245v209q0 36 -9 51t-30 15q-20 0 -28.5 -14.5t-8.5 -51.5v-182
q0 -71 78 -115l18 -10l121 -70q58 -33 81 -77.5t23 -145.5v-211q0 -206 -52.5 -256.5t-235.5 -50.5q-174 0 -226.5 51.5t-52.5 255.5v199z" />
    <glyph glyph-name="t" unicode="t" horiz-adv-x="438" 
d="M78 1663h244v-307h96v-189h-96v-919q0 -36 14.5 -50t50.5 -14h31v-186h-101q-139 0 -189 48t-50 228v893h-64v189h64v307z" />
    <glyph glyph-name="u" unicode="u" horiz-adv-x="700" 
d="M68 1356h243v-1096q0 -37 9 -51t30 -14q22 0 30.5 14t8.5 51v1096h244v-1356h-244v57q-29 -30 -65.5 -46.5t-73.5 -16.5q-100 0 -141 65t-41 252v1045z" />
    <glyph glyph-name="v" unicode="v" horiz-adv-x="627" 
d="M25 1356h237l47 -907h10l48 907h237l-149 -1356h-283z" />
    <glyph glyph-name="w" unicode="w" horiz-adv-x="956" 
d="M18 1356h242l43 -801h14l54 801h213l51 -801h16l45 801h238l-148 -1356h-239l-64 803h-14l-61 -803h-240z" />
    <glyph glyph-name="x" unicode="x" horiz-adv-x="682" 
d="M37 1356h250l45 -484h8l51 484h250l-121 -623l133 -733h-254l-57 555h-8l-58 -555h-253l133 733z" />
    <glyph glyph-name="y" unicode="y" horiz-adv-x="621" 
d="M444 -47q-19 -174 -70.5 -222t-180.5 -48h-222v188h138q43 0 59 12t16 43q0 4 -1 13.5t-1 13.5l-162 1403h234l51 -887h14l50 887h233z" />
    <glyph glyph-name="z" unicode="z" horiz-adv-x="594" 
d="M74 1356h479v-205l-266 -958h264v-193h-512v213l262 952h-227v191z" />
    <glyph glyph-name="braceleft" unicode="{" horiz-adv-x="1024" 
d="M874 1477v-179q-8 0 -24 1t-23 1q-109 0 -147.5 -41.5t-38.5 -173.5v-241q0 -155 -44 -220.5t-159 -93.5q114 -27 158.5 -92.5t44.5 -220.5v-240q0 -132 39.5 -174.5t148.5 -42.5q7 0 22 1t23 1v-176h-63q-102 0 -165.5 12t-106.5 37q-57 34 -80 96t-23 203v248
q0 144 -52.5 203t-178.5 59q-7 0 -21.5 -1t-21.5 -1v179q7 0 21.5 -1.5t21.5 -1.5q126 0 178.5 59t52.5 202v247q0 145 23 206.5t80 94.5q44 27 109 38.5t181 11.5h45z" />
    <glyph glyph-name="bar" unicode="|" horiz-adv-x="1024" 
d="M424 1565h178v-2048h-178v2048z" />
    <glyph glyph-name="braceright" unicode="}" horiz-adv-x="1024" 
d="M152 1477h45q115 0 179.5 -11.5t108.5 -38.5q57 -33 80 -95t23 -206v-247q0 -144 52 -202.5t179 -58.5q6 0 21 1.5t22 1.5v-179q-7 0 -21.5 1t-21.5 1q-126 0 -178.5 -59t-52.5 -203v-248q0 -143 -23 -204t-80 -95q-43 -26 -108 -37.5t-180 -11.5h-45v176q8 0 23 -1
t22 -1q109 0 147.5 42t38.5 175v240q0 153 45 219t160 94q-115 28 -160 93.5t-45 220.5v241q0 132 -38 173.5t-146 41.5q-7 0 -23 -1t-24 -1v179z" />
    <glyph glyph-name="asciitilde" unicode="~" horiz-adv-x="1706" 
d="M1530 784v-184q-103 -71 -197.5 -106t-183.5 -35q-44 0 -92.5 8.5t-98.5 26.5q-25 8 -76 26q-212 74 -319 74q-82 0 -174 -38t-211 -122v187q106 72 202 107.5t185 35.5q62 0 125.5 -12t168.5 -48q13 -4 42 -15q164 -58 250 -58q85 0 177 37t202 116z" />
    <glyph glyph-name="Adieresis" unicode="&#xc4;" horiz-adv-x="784" 
d="M383 1333l-45 -758h96l-43 758h-8zM197 1663h378l168 -1663h-276l-21 354h-118l-21 -354h-274zM430 1751v197h201v-197h-201zM157 1751v197h201v-197h-201z" />
    <glyph glyph-name="Aring" unicode="&#xc5;" horiz-adv-x="784" 
d="M383 1300l-45 -725h96l-43 725h-8zM195 1632h383l165 -1632h-276l-21 354h-118l-21 -354h-274zM313 1896q-12 0 -17 -9.5t-5 -33.5q0 -26 4.5 -35.5t17.5 -9.5h148q12 0 18 10.5t6 34.5q0 25 -5 34t-19 9h-148zM268 2013h238q58 0 79 -22t21 -78v-119q0 -56 -22 -79
t-78 -23h-238q-56 0 -78 22.5t-22 79.5v119q0 55 21.5 77.5t78.5 22.5z" />
    <glyph glyph-name="Ccedilla" unicode="&#xc7;" horiz-adv-x="772" 
d="M721 1341v-245h-285v284q0 40 -11 56t-36 16q-23 0 -33 -16.5t-10 -55.5v-1099q0 -38 11 -54t36 -16q24 0 33.5 15t9.5 55v424h285v-383q0 -220 -59 -277t-267 -57q-214 0 -273 57.5t-59 276.5v1019q0 222 58.5 277t269.5 55q215 0 272.5 -57t57.5 -275zM367 0h112
q31 -43 45.5 -79t14.5 -68q0 -81 -51 -118.5t-160 -37.5q-15 0 -46 2.5t-47 3.5v147h89q35 0 52 15.5t17 46.5q0 16 -6 37t-20 51z" />
    <glyph glyph-name="Eacute" unicode="&#xc9;" horiz-adv-x="590" 
d="M72 1663h454v-217h-170v-424h170v-219h-170v-584h170v-219h-454v1663zM283 1954h225l-125 -217h-182z" />
    <glyph glyph-name="Ntilde" unicode="&#xd1;" horiz-adv-x="809" 
d="M72 1663h254l155 -829h13l-5 829h246v-1663h-252l-157 852h-13l6 -852h-247v1663zM533 1950h133v-60q0 -68 -27 -101.5t-81 -33.5q-15 0 -24.5 1t-18.5 3l-168 27q-2 0 -7.5 1t-7.5 1q-23 0 -37 -13.5t-14 -35.5h-133v61q0 66 27.5 99.5t80.5 33.5q22 0 30 -0.5t14 -1.5
l167 -29q2 0 7.5 -1t7.5 -1q23 0 37 13.5t14 36.5z" />
    <glyph glyph-name="Odieresis" unicode="&#xd6;" 
d="M346 1380v-1099q0 -38 11 -54t36 -16q24 0 33.5 15t9.5 55v1099q0 40 -11 56t-36 16q-23 0 -33 -16.5t-10 -55.5zM63 1341q0 222 58.5 277t269.5 55q215 0 272.5 -57t57.5 -275v-1019q0 -220 -59 -277t-267 -57q-214 0 -273 57.5t-59 276.5v1019zM428 1751v197h201v-197
h-201zM155 1751v197h201v-197h-201z" />
    <glyph glyph-name="Udieresis" unicode="&#xdc;" horiz-adv-x="788" 
d="M66 1663h284v-1382q0 -39 10.5 -55.5t34.5 -16.5t33.5 15.5t9.5 56.5v1382h285v-1344q0 -217 -58.5 -274t-267.5 -57q-214 0 -272.5 57.5t-58.5 273.5v1344zM432 1751v197h201v-197h-201zM159 1751v197h201v-197h-201z" />
    <glyph glyph-name="aacute" unicode="&#xe1;" horiz-adv-x="678" 
d="M375 625l-41 -25q-19 -11 -28 -27.5t-9 -40.5v-18v-264q0 -38 9.5 -54t31.5 -16q20 0 28.5 14.5t8.5 55.5v375zM621 1102v-1102h-246v55q-31 -30 -69.5 -46.5t-80.5 -16.5q-94 0 -133 62t-39 243v231q0 79 26 123.5t91 83.5l205 119v252q0 39 -9 53.5t-30 14.5t-30 -15.5
t-9 -52.5v-207h-244v203q0 160 55 211t228 51q174 0 229.5 -52.5t55.5 -209.5zM328 1651h225l-125 -217h-182z" />
    <glyph glyph-name="agrave" unicode="&#xe0;" horiz-adv-x="678" 
d="M375 625l-41 -25q-19 -11 -28 -27.5t-9 -40.5v-18v-264q0 -38 9.5 -54t31.5 -16q20 0 28.5 14.5t8.5 55.5v375zM621 1102v-1102h-246v55q-31 -30 -69.5 -46.5t-80.5 -16.5q-94 0 -133 62t-39 243v231q0 79 26 123.5t91 83.5l205 119v252q0 39 -9 53.5t-30 14.5t-30 -15.5
t-9 -52.5v-207h-244v203q0 160 55 211t228 51q174 0 229.5 -52.5t55.5 -209.5zM127 1651h225l80 -217h-180z" />
    <glyph glyph-name="acircumflex" unicode="&#xe2;" horiz-adv-x="678" 
d="M375 625l-41 -25q-19 -11 -28 -27.5t-9 -40.5v-18v-264q0 -38 9.5 -54t31.5 -16q20 0 28.5 14.5t8.5 55.5v375zM621 1102v-1102h-246v55q-31 -30 -69.5 -46.5t-80.5 -16.5q-94 0 -133 62t-39 243v231q0 79 26 123.5t91 83.5l205 119v252q0 39 -9 53.5t-30 14.5t-30 -15.5
t-9 -52.5v-207h-244v203q0 160 55 211t228 51q174 0 229.5 -52.5t55.5 -209.5zM215 1651h250l119 -217h-185l-59 94l-59 -94h-185z" />
    <glyph glyph-name="adieresis" unicode="&#xe4;" horiz-adv-x="678" 
d="M375 625l-41 -25q-19 -11 -28 -27.5t-9 -40.5v-18v-264q0 -38 9.5 -54t31.5 -16q20 0 28.5 14.5t8.5 55.5v375zM621 1102v-1102h-246v55q-31 -30 -69.5 -46.5t-80.5 -16.5q-94 0 -133 62t-39 243v231q0 79 26 123.5t91 83.5l205 119v252q0 39 -9 53.5t-30 14.5t-30 -15.5
t-9 -52.5v-207h-244v203q0 160 55 211t228 51q174 0 229.5 -52.5t55.5 -209.5zM377 1448v197h201v-197h-201zM104 1448v197h201v-197h-201z" />
    <glyph glyph-name="atilde" unicode="&#xe3;" horiz-adv-x="678" 
d="M375 625l-41 -25q-19 -11 -28 -27.5t-9 -40.5v-18v-264q0 -38 9.5 -54t31.5 -16q20 0 28.5 14.5t8.5 55.5v375zM621 1102v-1102h-246v55q-31 -30 -69.5 -46.5t-80.5 -16.5q-94 0 -133 62t-39 243v231q0 79 26 123.5t91 83.5l205 119v252q0 39 -9 53.5t-30 14.5t-30 -15.5
t-9 -52.5v-207h-244v203q0 160 55 211t228 51q174 0 229.5 -52.5t55.5 -209.5zM467 1647h133v-60q0 -68 -27 -101.5t-81 -33.5q-15 0 -24.5 1t-18.5 3l-168 27q-2 0 -7.5 1t-7.5 1q-23 0 -37 -13.5t-14 -35.5h-133v61q0 66 27.5 99.5t80.5 33.5q22 0 30 -0.5t14 -1.5
l167 -29q2 0 7.5 -1t7.5 -1q23 0 37 13.5t14 36.5z" />
    <glyph glyph-name="aring" unicode="&#xe5;" horiz-adv-x="678" 
d="M375 625l-41 -25q-19 -11 -28 -27.5t-9 -40.5v-18v-264q0 -38 9.5 -54t31.5 -16q20 0 28.5 14.5t8.5 55.5v375zM621 1102v-1102h-246v55q-31 -30 -69.5 -46.5t-80.5 -16.5q-94 0 -133 62t-39 243v231q0 79 26 123.5t91 83.5l205 119v252q0 39 -9 53.5t-30 14.5t-30 -15.5
t-9 -52.5v-207h-244v203q0 160 55 211t228 51q174 0 229.5 -52.5t55.5 -209.5zM264 1640q-12 0 -18 -11.5t-6 -35.5q0 -22 5.5 -32.5t18.5 -10.5h146q12 0 18 11.5t6 33.5q0 23 -6 34t-18 11h-146zM217 1755h238q57 0 78.5 -22t21.5 -78v-119q0 -57 -22 -79.5t-78 -22.5
h-238q-56 0 -78 23t-22 79v119q0 48 19 74t54 26h27z" />
    <glyph glyph-name="ccedilla" unicode="&#xe7;" horiz-adv-x="672" 
d="M621 1102v-299h-246v303q0 39 -9 53.5t-30 14.5q-22 0 -30.5 -13.5t-8.5 -54.5v-856q0 -39 9 -54.5t30 -15.5t30 14t9 56v332h246v-330q0 -158 -55.5 -209t-233.5 -51q-171 0 -225 51.5t-54 208.5v850q0 160 55 211t228 51q174 0 229.5 -52.5t55.5 -209.5zM316 0h112
q31 -43 45.5 -79t14.5 -68q0 -81 -51 -118.5t-160 -37.5q-15 0 -46 2.5t-47 3.5v147h89q35 0 52 15.5t17 46.5q0 16 -6 37t-20 51z" />
    <glyph glyph-name="eacute" unicode="&#xe9;" horiz-adv-x="672" 
d="M297 825h78v281q0 37 -8.5 52.5t-28.5 15.5q-23 0 -32 -14t-9 -54v-281zM297 637v-387q0 -39 9 -54.5t30 -15.5t30 14t9 56v252h246v-250q0 -158 -55.5 -209t-233.5 -51q-171 0 -225 51.5t-54 208.5v850q0 160 55 211t228 51q174 0 229.5 -52.5t55.5 -209.5v-465h-324z
M324 1651h225l-125 -217h-182z" />
    <glyph glyph-name="egrave" unicode="&#xe8;" horiz-adv-x="672" 
d="M297 825h78v281q0 37 -8.5 52.5t-28.5 15.5q-23 0 -32 -14t-9 -54v-281zM297 637v-387q0 -39 9 -54.5t30 -15.5t30 14t9 56v252h246v-250q0 -158 -55.5 -209t-233.5 -51q-171 0 -225 51.5t-54 208.5v850q0 160 55 211t228 51q174 0 229.5 -52.5t55.5 -209.5v-465h-324z
M123 1651h225l80 -217h-180z" />
    <glyph glyph-name="ecircumflex" unicode="&#xea;" horiz-adv-x="672" 
d="M297 825h78v281q0 37 -8.5 52.5t-28.5 15.5q-23 0 -32 -14t-9 -54v-281zM297 637v-387q0 -39 9 -54.5t30 -15.5t30 14t9 56v252h246v-250q0 -158 -55.5 -209t-233.5 -51q-171 0 -225 51.5t-54 208.5v850q0 160 55 211t228 51q174 0 229.5 -52.5t55.5 -209.5v-465h-324z
M211 1651h250l119 -217h-185l-59 94l-59 -94h-185z" />
    <glyph glyph-name="edieresis" unicode="&#xeb;" horiz-adv-x="672" 
d="M297 825h78v281q0 37 -8.5 52.5t-28.5 15.5q-23 0 -32 -14t-9 -54v-281zM297 637v-387q0 -39 9 -54.5t30 -15.5t30 14t9 56v252h246v-250q0 -158 -55.5 -209t-233.5 -51q-171 0 -225 51.5t-54 208.5v850q0 160 55 211t228 51q174 0 229.5 -52.5t55.5 -209.5v-465h-324z
M373 1448v197h201v-197h-201zM100 1448v197h201v-197h-201z" />
    <glyph glyph-name="iacute" unicode="&#xed;" horiz-adv-x="379" 
d="M68 1356h243v-1356h-243v1356zM178 1651h225l-125 -217h-182z" />
    <glyph glyph-name="igrave" unicode="&#xec;" horiz-adv-x="379" 
d="M68 1356h243v-1356h-243v1356zM-23 1651h225l80 -217h-180z" />
    <glyph glyph-name="icircumflex" unicode="&#xee;" horiz-adv-x="379" 
d="M68 1356h243v-1356h-243v1356zM65 1651h250l119 -217h-185l-59 94l-59 -94h-185z" />
    <glyph glyph-name="idieresis" unicode="&#xef;" horiz-adv-x="379" 
d="M68 1356h243v-1356h-243v1356zM227 1448v197h201v-197h-201zM-46 1448v197h201v-197h-201z" />
    <glyph glyph-name="ntilde" unicode="&#xf1;" horiz-adv-x="700" 
d="M633 1047v-1047h-244v1096q0 36 -9 50.5t-30 14.5t-30 -14t-9 -51v-1096h-243v1354h243v-56q32 32 68 49t72 17q99 0 140.5 -65t41.5 -252zM477 1647h133v-60q0 -68 -27 -101.5t-81 -33.5q-15 0 -24.5 1t-18.5 3l-168 27q-2 0 -7.5 1t-7.5 1q-23 0 -37 -13.5t-14 -35.5
h-133v61q0 66 27.5 99.5t80.5 33.5q22 0 30 -0.5t14 -1.5l167 -29q2 0 7.5 -1t7.5 -1q23 0 37 13.5t14 36.5z" />
    <glyph glyph-name="oacute" unicode="&#xf3;" horiz-adv-x="672" 
d="M297 1106v-856q0 -37 10 -53.5t31 -16.5q20 0 28.5 13.5t8.5 56.5v856q0 37 -8.5 52.5t-28.5 15.5q-23 0 -32 -14t-9 -54zM53 1102q0 160 55 211t228 51q174 0 229.5 -52.5t55.5 -209.5v-850q0 -158 -55.5 -209t-233.5 -51q-171 0 -225 51.5t-54 208.5v850zM324 1651h225
l-125 -217h-182z" />
    <glyph glyph-name="ograve" unicode="&#xf2;" horiz-adv-x="672" 
d="M297 1106v-856q0 -37 10 -53.5t31 -16.5q20 0 28.5 13.5t8.5 56.5v856q0 37 -8.5 52.5t-28.5 15.5q-23 0 -32 -14t-9 -54zM53 1102q0 160 55 211t228 51q174 0 229.5 -52.5t55.5 -209.5v-850q0 -158 -55.5 -209t-233.5 -51q-171 0 -225 51.5t-54 208.5v850zM123 1651h225
l80 -217h-180z" />
    <glyph glyph-name="ocircumflex" unicode="&#xf4;" horiz-adv-x="672" 
d="M297 1106v-856q0 -37 10 -53.5t31 -16.5q20 0 28.5 13.5t8.5 56.5v856q0 37 -8.5 52.5t-28.5 15.5q-23 0 -32 -14t-9 -54zM53 1102q0 160 55 211t228 51q174 0 229.5 -52.5t55.5 -209.5v-850q0 -158 -55.5 -209t-233.5 -51q-171 0 -225 51.5t-54 208.5v850zM211 1651h250
l119 -217h-185l-59 94l-59 -94h-185z" />
    <glyph glyph-name="odieresis" unicode="&#xf6;" horiz-adv-x="672" 
d="M297 1106v-856q0 -37 10 -53.5t31 -16.5q20 0 28.5 13.5t8.5 56.5v856q0 37 -8.5 52.5t-28.5 15.5q-23 0 -32 -14t-9 -54zM53 1102q0 160 55 211t228 51q174 0 229.5 -52.5t55.5 -209.5v-850q0 -158 -55.5 -209t-233.5 -51q-171 0 -225 51.5t-54 208.5v850zM373 1448v197
h201v-197h-201zM100 1448v197h201v-197h-201z" />
    <glyph glyph-name="otilde" unicode="&#xf5;" horiz-adv-x="672" 
d="M297 1106v-856q0 -37 10 -53.5t31 -16.5q20 0 28.5 13.5t8.5 56.5v856q0 37 -8.5 52.5t-28.5 15.5q-23 0 -32 -14t-9 -54zM53 1102q0 160 55 211t228 51q174 0 229.5 -52.5t55.5 -209.5v-850q0 -158 -55.5 -209t-233.5 -51q-171 0 -225 51.5t-54 208.5v850zM463 1647h133
v-60q0 -68 -27 -101.5t-81 -33.5q-15 0 -24.5 1t-18.5 3l-168 27q-2 0 -7.5 1t-7.5 1q-23 0 -37 -13.5t-14 -35.5h-133v61q0 66 27.5 99.5t80.5 33.5q22 0 30 -0.5t14 -1.5l167 -29q2 0 7.5 -1t7.5 -1q23 0 37 13.5t14 36.5z" />
    <glyph glyph-name="uacute" unicode="&#xfa;" horiz-adv-x="700" 
d="M68 1356h243v-1096q0 -37 9 -51t30 -14q22 0 30.5 14t8.5 51v1096h244v-1356h-244v57q-29 -30 -65.5 -46.5t-73.5 -16.5q-100 0 -141 65t-41 252v1045zM338 1651h225l-125 -217h-182z" />
    <glyph glyph-name="ugrave" unicode="&#xf9;" horiz-adv-x="700" 
d="M68 1356h243v-1096q0 -37 9 -51t30 -14q22 0 30.5 14t8.5 51v1096h244v-1356h-244v57q-29 -30 -65.5 -46.5t-73.5 -16.5q-100 0 -141 65t-41 252v1045zM137 1651h225l80 -217h-180z" />
    <glyph glyph-name="ucircumflex" unicode="&#xfb;" horiz-adv-x="700" 
d="M68 1356h243v-1096q0 -37 9 -51t30 -14q22 0 30.5 14t8.5 51v1096h244v-1356h-244v57q-29 -30 -65.5 -46.5t-73.5 -16.5q-100 0 -141 65t-41 252v1045zM225 1651h250l119 -217h-185l-59 94l-59 -94h-185z" />
    <glyph glyph-name="udieresis" unicode="&#xfc;" horiz-adv-x="700" 
d="M68 1356h243v-1096q0 -37 9 -51t30 -14q22 0 30.5 14t8.5 51v1096h244v-1356h-244v57q-29 -30 -65.5 -46.5t-73.5 -16.5q-100 0 -141 65t-41 252v1045zM387 1448v197h201v-197h-201zM114 1448v197h201v-197h-201z" />
    <glyph glyph-name="dagger" unicode="&#x2020;" horiz-adv-x="737" 
d="M238 1663h260v-418h211v-219h-211v-1216h-260v1216h-207v219h207v418z" />
    <glyph glyph-name="degree" unicode="&#xb0;" horiz-adv-x="674" 
d="M338 1350q-77 0 -131.5 -54t-54.5 -131q0 -76 54.5 -131t131.5 -55t130.5 54.5t53.5 131.5t-53.5 131t-130.5 54zM338 1460q121 0 208 -87t87 -210q0 -121 -87 -208t-210 -87t-208 85.5t-85 209.5q0 125 86 211t209 86z" />
    <glyph glyph-name="cent" unicode="&#xa2;" 
d="M297 1548h192v-116q121 -9 164 -66t43 -262v-230h-262v289q0 40 -9.5 55t-33.5 15q-22 0 -31.5 -15t-9.5 -55v-827q0 -40 10 -56t33 -16q22 0 31.5 16t9.5 56v317h262v-258q0 -206 -43 -263t-164 -64v-121h-192v120q-124 10 -167.5 66.5t-43.5 261.5v709q0 208 44 263.5
t167 64.5v116z" />
    <glyph glyph-name="sterling" unicode="&#xa3;" 
d="M739 1339v-219h-284v258q0 41 -10.5 56.5t-34.5 15.5q-23 0 -33 -16.5t-10 -55.5v-366h282v-226h-280v-569h24q36 0 49 13.5t13 76.5v371h284v-338q0 -224 -56.5 -282t-252.5 -58h-348v786h-78v226h78v327q0 221 58.5 276.5t269.5 55.5q213 0 271 -58.5t58 -273.5z" />
    <glyph glyph-name="section" unicode="&#xa7;" horiz-adv-x="739" 
d="M426 590v194q0 44 -9 61t-31 31l-73 50v-191q0 -49 9 -65.5t38 -36.5zM61 256h265v-174q0 -39 10 -54.5t35 -15.5q36 0 54 68l1 2v170q0 10 -2 19t-2 10q0 15 -17.5 35t-42.5 34l-202 113q-54 30 -76.5 78.5t-22.5 165.5v176q0 86 13 121.5t45 54.5q-32 26 -45 61.5
t-13 108.5q1 1 1.5 4t0.5 6v4t-2 2v119q0 187 62 247t258 60q182 0 240.5 -59t58.5 -273v-100h-254v160q0 35 -15 52t-44 17q-28 0 -41 -16.5t-13 -52.5v-131q0 -40 16.5 -64.5t53.5 -44.5l182 -100q63 -34 89 -82.5t26 -159.5v-201q0 -72 -14 -107.5t-48 -53.5
q34 -25 48 -62.5t14 -113.5v-138q0 -214 -61 -272.5t-254 -58.5q-186 0 -245 58.5t-59 272.5v115z" />
    <glyph glyph-name="bullet" unicode="&#x2022;" horiz-adv-x="1208" 
d="M307 762q0 123 87 209t210 86q122 0 208.5 -86.5t86.5 -208.5t-87.5 -209.5t-209.5 -87.5q-123 0 -209 87t-86 210z" />
    <glyph glyph-name="paragraph" unicode="&#xb6;" horiz-adv-x="1024" 
d="M969 1479v-99h-117v-1380h-129v1380h-168v-1380h-131v784q-168 6 -268.5 101t-100.5 245q0 158 107 253.5t284 95.5h523z" />
    <glyph glyph-name="germandbls" unicode="&#xdf;" horiz-adv-x="696" 
d="M66 -4v1415q0 155 54 207.5t208 52.5q187 0 248 -45.5t61 -163.5v-323q0 -104 -30.5 -160t-96.5 -78q70 -21 98.5 -74.5t28.5 -177.5v-393q0 -156 -52.5 -208t-197.5 -52h-41v202q27 3 37 16t10 54v477q0 18 -12.5 30.5t-30.5 12.5h-4l1 232q26 2 36 15t10 46v365
q0 14 -11 25.5t-28 11.5q-24 0 -33.5 -15t-9.5 -59v-1413h-245z" />
    <glyph glyph-name="registered" unicode="&#xae;" horiz-adv-x="1706" 
d="M729 1047v-261h117q100 0 146 30.5t46 96.5q0 69 -48 101.5t-152 32.5h-109zM551 1159h319q173 0 262 -57t89 -168q0 -91 -48 -150.5t-137 -78.5l185 -375h-199l-164 346h-129v-346h-178v829zM854 1362q-129 0 -240 -45.5t-200 -134.5q-92 -94 -141.5 -210t-49.5 -241
t47 -238.5t136 -203.5q90 -91 204 -140t234 -49q130 0 246.5 47t209.5 138q89 86 137 198.5t48 237.5q0 133 -45.5 247.5t-134.5 205.5q-93 92 -207.5 140t-243.5 48zM852 1470q153 0 288.5 -56t241.5 -165q103 -104 157 -236.5t54 -281.5q0 -153 -55.5 -287t-161.5 -237
q-108 -105 -243 -161t-281 -56q-147 0 -282.5 57.5t-241.5 165.5q-105 106 -160 239t-55 279q0 147 57.5 284t165.5 245q104 104 234.5 157t281.5 53z" />
    <glyph glyph-name="copyright" unicode="&#xa9;" horiz-adv-x="1706" 
d="M1206 903h-166q-10 74 -60 114t-130 40q-99 0 -155 -86.5t-56 -239.5q0 -152 57.5 -234.5t163.5 -82.5q80 0 129 43.5t60 124.5h165q-7 -135 -106.5 -217t-253.5 -82q-183 0 -290 119t-107 323q0 208 109.5 331.5t291.5 123.5q147 0 243 -77t105 -200zM854 1362
q-130 0 -243 -46.5t-201 -135.5q-90 -92 -138.5 -208t-48.5 -241q0 -126 48 -240t139 -204q90 -91 204.5 -139t239.5 -48t240 48.5t209 140.5q89 88 135.5 200.5t46.5 241.5t-47 243.5t-135 203.5q-91 90 -205 137t-244 47zM852 1470q152 0 286 -55t240 -162
q105 -105 160 -238.5t55 -283.5q0 -153 -54.5 -286t-158.5 -234q-108 -107 -244.5 -164t-283.5 -57q-146 0 -280 56.5t-240 162.5q-107 106 -163 240.5t-56 281.5q0 145 57 280.5t164 243.5q105 107 235.5 161t282.5 54z" />
    <glyph glyph-name="trademark" unicode="&#x2122;" horiz-adv-x="1706" 
d="M809 1460h170l141 -360l133 360h170v-542h-114v428l-160 -428h-59l-166 428v-428h-115v542zM225 1460h467v-94h-168v-448h-129v448h-170v94z" />
    <glyph glyph-name="acute" unicode="&#xb4;" horiz-adv-x="1024" 
d="M500 1651h225l-125 -217h-182z" />
    <glyph glyph-name="dieresis" unicode="&#xa8;" horiz-adv-x="1024" 
d="M549 1448v197h201v-197h-201zM276 1448v197h201v-197h-201z" />
    <glyph glyph-name="notequal" unicode="&#x2260;" horiz-adv-x="1706" 
d="M1204 1212l123 -100l-170 -215h295v-162h-403l-197 -250h600v-161h-707l-249 -314l-123 99l170 215h-289v161h393l199 250h-592v162h700z" />
    <glyph glyph-name="AE" unicode="&#xc6;" horiz-adv-x="993" 
d="M459 1446l-109 -871h139v871h-30zM246 1663h684v-217h-170v-424h170v-219h-170v-584h170v-219h-447v354h-172l-43 -354h-276z" />
    <glyph glyph-name="Oslash" unicode="&#xd8;" 
d="M436 1382q0 40 -11 56t-36 16q-23 0 -33 -16.5t-10 -55.5v-1101q0 -39 11 -55.5t36 -16.5q24 0 33.5 15.5t9.5 56.5v1101zM580 1786l127 -37l-41 -139q30 -29 42.5 -82.5t12.5 -186.5v-1019q0 -220 -59 -277t-297 -57q-51 0 -85 4.5t-65 13.5l-35 -115l-117 35l41 150
q-22 28 -31.5 71t-9.5 146v29v1019q0 222 58.5 277t269.5 55q45 0 83.5 -1.5t70.5 -3.5z" />
    <glyph glyph-name="infinity" unicode="&#x221e;" horiz-adv-x="1706" 
d="M928 559q45 -81 109.5 -122.5t146.5 -41.5q97 0 159 61.5t62 157.5q0 95 -57 158.5t-142 63.5q-78 0 -142 -63.5t-136 -213.5zM780 662q-46 81 -111 123t-145 42q-98 0 -159.5 -62t-61.5 -159q0 -94 56.5 -156.5t140.5 -62.5q80 0 144.5 62.5t135.5 212.5zM862 471
q-71 -135 -148.5 -197.5t-172.5 -62.5q-137 0 -232.5 114.5t-95.5 284.5q0 179 85 289.5t220 110.5q93 0 168.5 -60t157.5 -200q71 139 149.5 200.5t184.5 61.5q127 0 222 -116t95 -284q0 -178 -84.5 -288.5t-220.5 -110.5q-92 0 -166.5 57.5t-161.5 200.5z" />
    <glyph glyph-name="plusminus" unicode="&#xb1;" horiz-adv-x="1706" 
d="M254 182h1198v-168h-1198v168zM768 1206h170v-334h514v-165h-514v-334h-170v334h-514v165h514v334z" />
    <glyph glyph-name="lessequal" unicode="&#x2264;" horiz-adv-x="1706" 
d="M260 178h1186v-166h-1186v166zM1446 1223v-176l-889 -287l889 -287v-176l-1186 389v145z" />
    <glyph glyph-name="greaterequal" unicode="&#x2265;" horiz-adv-x="1706" 
d="M260 178h1188v-166h-1188v166zM260 1223l1186 -392v-145l-1186 -389v176l891 287l-891 287v176z" />
    <glyph glyph-name="yen" unicode="&#xa5;" horiz-adv-x="680" 
d="M-4 1663h276l76 -657l66 657h268l-152 -805h132v-186h-168v-672h-295v672h-166v186h127z" />
    <glyph glyph-name="mu" unicode="&#xb5;" horiz-adv-x="1208" 
d="M205 1081h229l-125 -635q-6 -29 -9 -55t-3 -49q0 -96 46.5 -146.5t135.5 -50.5q122 0 193.5 88.5t111.5 292.5l109 555h225l-145 -739q-10 -49 -14.5 -81.5t-4.5 -51.5q0 -36 15.5 -51t52.5 -15q13 0 20.5 0.5t13.5 1.5l-32 -159q-32 -9 -68.5 -13t-81.5 -4
q-74 0 -111.5 31.5t-37.5 93.5v15q-41 -67 -108 -104.5t-146 -37.5q-81 0 -137.5 26t-97.5 83l-99 -506h-229z" />
    <glyph glyph-name="partialdiff" unicode="&#x2202;" horiz-adv-x="1075" 
d="M758 639q17 103 26 186.5t9 147.5q0 120 -29 174.5t-92 54.5q-62 0 -147 -58.5t-122 -58.5t-64.5 26t-27.5 60q0 66 79 115t200 49q176 0 287.5 -159t111.5 -422q0 -338 -150 -558.5t-376 -220.5q-161 0 -266 112t-105 286q0 193 113 322.5t278 129.5q101 0 167.5 -45
t107.5 -141zM705 504q0 116 -41 178.5t-117 62.5q-105 0 -174.5 -131.5t-69.5 -337.5q0 -116 40.5 -177.5t117.5 -61.5q105 0 174.5 132.5t69.5 334.5z" />
    <glyph glyph-name="summation" unicode="&#x2211;" horiz-adv-x="1421" 
d="M61 1473h1280v-226h-921l647 -684l-661 -729h974v-227h-1347v160l712 786l-684 719v201z" />
    <glyph glyph-name="product" unicode="&#x220f;" horiz-adv-x="1579" 
d="M154 1473h1267v-1866h-286v1622h-695v-1622h-286v1866z" />
    <glyph glyph-name="pi" unicode="&#x3c0;" horiz-adv-x="1368" 
d="M360 889h-45q-54 0 -83.5 -31.5t-39.5 -99.5h-174q28 187 100 255t242 68h953l-39 -192h-193l-84 -437q-2 -13 -8 -41q-22 -113 -22 -147q0 -58 23 -82t77 -24q18 0 42.5 2.5t59.5 7.5l-34 -168q-29 -8 -61 -12t-75 -4q-139 0 -202.5 48t-63.5 154q0 77 52 344l1 6
l70 353h-268l-174 -889h-226z" />
    <glyph glyph-name="integral" unicode="&#x222b;" horiz-adv-x="1120" 
d="M324 -258q106 0 122 692l3 123q13 538 113 766.5t312 228.5q87 0 143 -45.5t56 -111.5q0 -61 -34 -95t-95 -34q-45 0 -74.5 22.5t-40.5 65.5q-4 17 -6 45q-3 40 -26 41q-101 0 -119 -615q-5 -161 -8 -249q-10 -280 -30.5 -427t-59.5 -245q-55 -136 -139.5 -205.5
t-194.5 -69.5q-87 0 -142 44t-55 112q0 63 35.5 97t99.5 34q39 0 66 -18t41 -54q6 -16 9 -59t24 -43z" />
    <glyph glyph-name="ordfeminine" unicode="&#xaa;" horiz-adv-x="508" 
d="M281 1153l-31 -18q-14 -8 -20.5 -19.5t-6.5 -28.5v-12v-186q0 -25 7.5 -36t23.5 -11q15 0 21 9t6 38v264zM465 1487v-772h-184v39q-24 -22 -52.5 -33.5t-58.5 -11.5q-71 0 -100 43t-29 172v161q0 54 19 85t67 59l154 84v176q-1 28 -7.5 37.5t-21.5 9.5t-22 -11t-7 -36
v-146h-182v144q0 112 41 147t170 35q131 0 172 -36.5t41 -145.5z" />
    <glyph glyph-name="ordmasculine" unicode="&#xba;" horiz-adv-x="504" 
d="M223 1489v-600q0 -25 7.5 -36t23.5 -11q15 0 21 8t6 39v600q0 26 -6.5 36.5t-20.5 10.5q-17 0 -24 -10t-7 -37zM41 1487q0 112 41 147t170 35q131 0 172 -36.5t41 -145.5v-596q0 -111 -41 -146.5t-174 -35.5q-127 0 -168 36t-41 146v596z" />
    <glyph glyph-name="Omega" unicode="&#x3a9;" horiz-adv-x="1569" 
d="M1194 213h305v-213h-602v229q160 94 242 244.5t82 351.5q0 210 -121 341.5t-316 131.5q-197 0 -316.5 -132.5t-119.5 -352.5q0 -191 84 -342t240 -242v-229h-602v213h305q-144 130 -211.5 274t-67.5 322q0 314 190.5 508t497.5 194q303 0 496 -192.5t193 -493.5
q0 -190 -65.5 -333t-213.5 -279z" />
    <glyph glyph-name="ae" unicode="&#xe6;" horiz-adv-x="993" 
d="M621 825h75v308q0 17 -10.5 29t-26.5 12q-21 0 -29.5 -12.5t-8.5 -55.5v-281zM375 625l-41 -25q-19 -11 -28 -27.5t-9 -40.5v-18v-264q0 -38 9.5 -54t31.5 -16q20 0 28.5 14.5t8.5 55.5v375zM451 92q-41 -54 -86 -78t-107 -24q-115 0 -160 57.5t-45 247.5v233
q0 80 26.5 126t90.5 81l205 113v258q0 39 -9 53.5t-30 14.5t-30 -15.5t-9 -52.5v-207h-244v203q0 160 55 211t218 51q62 0 100.5 -12t71.5 -39q28 28 65.5 39.5t106.5 11.5q159 0 214.5 -53t55.5 -209v-465h-319v-387q0 -40 8 -55t28 -15q22 0 30.5 14t8.5 56v252h244v-250
q0 -150 -55 -204t-211 -54q-99 0 -145 21.5t-78 76.5z" />
    <glyph glyph-name="oslash" unicode="&#xf8;" horiz-adv-x="672" 
d="M375 1106q0 37 -8.5 52.5t-28.5 15.5q-23 0 -32 -14t-9 -54v-856q0 -37 10 -53.5t31 -16.5q20 0 28.5 13.5t8.5 56.5v856zM524 1458l99 -31l-41 -137q21 -19 30 -55t9 -133v-848q0 -153 -55 -206.5t-208 -53.5q-59 0 -99.5 3.5t-76.5 10.5l-35 -110l-98 30l41 138
q-20 20 -28.5 52.5t-8.5 110.5v25v848q0 156 55.5 209t208.5 53q64 0 101.5 -3.5t72.5 -10.5z" />
    <glyph glyph-name="questiondown" unicode="&#xbf;" horiz-adv-x="772" 
d="M240 1280h282v-215q0 -89 -46 -180q-6 -12 -9 -19l-100 -207q-14 -26 -20.5 -61t-6.5 -78v-235q0 -41 10 -55.5t35 -14.5q24 0 34.5 15.5t10.5 54.5v290h285v-251q0 -216 -59.5 -273t-260.5 -57q-212 0 -275 60t-63 245v217q0 76 13 135t43 117l90 185l3 6q32 62 32 120
v3q2 12 2 22v176zM238 1663h284v-277h-284v277z" />
    <glyph glyph-name="exclamdown" unicode="&#xa1;" horiz-adv-x="403" 
d="M109 1264h188l47 -1264h-283zM59 1663h285v-279h-285v279z" />
    <glyph glyph-name="logicalnot" unicode="&#xac;" horiz-adv-x="1706" 
d="M254 862h1198v-502h-166v336h-1032v166z" />
    <glyph glyph-name="radical" unicode="&#x221a;" horiz-adv-x="1323" 
d="M1128 1675h197v-110h-108l-594 -1606h-82l-316 872l-131 -49l-28 95l305 108l247 -688z" />
    <glyph glyph-name="florin" unicode="&#x192;" 
d="M688 1667v-219h-61q-61 0 -83 -30.5t-22 -153.5v-240h166v-217h-166v-744q0 -220 -80.5 -300t-302.5 -80h-53v221h61q62 0 81.5 25.5t19.5 127.5v750h-158v217h158v268q0 211 79 295t269 84q12 0 50 -2q25 -1 42 -2z" />
    <glyph glyph-name="approxequal" unicode="&#x2248;" horiz-adv-x="1706" 
d="M1530 592v-186q-107 -73 -200 -106.5t-189 -33.5q-89 0 -279.5 66.5t-298.5 66.5q-84 0 -173.5 -36t-211.5 -121v184q112 75 206.5 110t180.5 35q118 0 309 -67.5t277 -67.5q83 0 172 36.5t207 119.5zM1530 979v-184q-109 -75 -201.5 -108.5t-187.5 -33.5
q-88 0 -278.5 67.5t-299.5 67.5q-82 0 -170 -35t-215 -122v184q109 73 205 109.5t182 36.5q120 0 310 -68t268 -68q92 0 181 35t206 119z" />
    <glyph glyph-name="Delta" unicode="&#x2206;" horiz-adv-x="1395" 
d="M698 1196l-379 -983h756zM569 1473h256l574 -1473h-1403z" />
    <glyph glyph-name="guillemotleft" unicode="&#xab;" horiz-adv-x="625" 
d="M401 1251h179l-91 -571l91 -576h-179l-90 576zM143 1251h179l-91 -571l91 -576h-179l-90 576z" />
    <glyph glyph-name="guillemotright" unicode="&#xbb;" horiz-adv-x="625" 
d="M301 1251h178l90 -569l-90 -578h-178l90 578zM43 1251h178l90 -569l-90 -578h-178l90 578z" />
    <glyph glyph-name="ellipsis" unicode="&#x2026;" horiz-adv-x="2048" 
d="M223 293h235v-293h-235v293zM905 293h235v-293h-235v293zM1589 293h235v-293h-235v293z" />
    <glyph glyph-name="nonbreakingspace" unicode="&#xa0;" 
 />
    <glyph glyph-name="Agrave" unicode="&#xc0;" horiz-adv-x="784" 
d="M383 1333l-45 -758h96l-43 758h-8zM197 1663h378l168 -1663h-276l-21 354h-118l-21 -354h-274zM180 1954h225l80 -217h-180z" />
    <glyph glyph-name="Atilde" unicode="&#xc3;" horiz-adv-x="784" 
d="M383 1333l-45 -758h96l-43 758h-8zM197 1663h378l168 -1663h-276l-21 354h-118l-21 -354h-274zM520 1950h133v-60q0 -68 -27 -101.5t-81 -33.5q-15 0 -24.5 1t-18.5 3l-168 27q-2 0 -7.5 1t-7.5 1q-23 0 -37 -13.5t-14 -35.5h-133v61q0 66 27.5 99.5t80.5 33.5
q22 0 30 -0.5t14 -1.5l167 -29q2 0 7.5 -1t7.5 -1q23 0 37 13.5t14 36.5z" />
    <glyph glyph-name="Otilde" unicode="&#xd5;" 
d="M346 1380v-1099q0 -38 11 -54t36 -16q24 0 33.5 15t9.5 55v1099q0 40 -11 56t-36 16q-23 0 -33 -16.5t-10 -55.5zM63 1341q0 222 58.5 277t269.5 55q215 0 272.5 -57t57.5 -275v-1019q0 -220 -59 -277t-267 -57q-214 0 -273 57.5t-59 276.5v1019zM518 1950h133v-60
q0 -68 -27 -101.5t-81 -33.5q-15 0 -24.5 1t-18.5 3l-168 27q-2 0 -7.5 1t-7.5 1q-23 0 -37 -13.5t-14 -35.5h-133v61q0 66 27.5 99.5t80.5 33.5q22 0 30 -0.5t14 -1.5l167 -29q2 0 7.5 -1t7.5 -1q23 0 37 13.5t14 36.5z" />
    <glyph glyph-name="OE" unicode="&#x152;" horiz-adv-x="952" 
d="M434 1448h-24q-39 0 -51.5 -13.5t-12.5 -56.5v-1095q0 -43 12.5 -57.5t47.5 -14.5q3 0 13 1t15 1v1235zM399 1663h484v-217h-170v-424h170v-219h-170v-584h170v-219h-488q-220 0 -276 56t-56 272v1007q0 219 55.5 273.5t280.5 54.5z" />
    <glyph glyph-name="oe" unicode="&#x153;" horiz-adv-x="993" 
d="M696 1106v27q0 17 -10.5 29t-26.5 12q-21 0 -29.5 -12.5t-8.5 -55.5v-281h75v281zM375 1106q0 37 -8.5 52.5t-28.5 15.5q-23 0 -32 -14t-9 -54v-856q0 -37 10 -53.5t31 -16.5q20 0 28.5 13.5t8.5 56.5v856zM498 1305q30 30 73 44.5t101 14.5q158 0 214 -53.5t56 -208.5
v-465h-321v-387q0 -41 8.5 -55.5t29.5 -14.5q20 0 28.5 14.5t8.5 55.5v252h246v-250q0 -155 -54 -207.5t-202 -52.5q-72 0 -115 13.5t-73 43.5q-33 -30 -72.5 -43.5t-95.5 -13.5q-166 0 -221.5 51.5t-55.5 208.5v850q0 157 54.5 209.5t201.5 52.5q71 0 112.5 -13.5
t76.5 -45.5z" />
    <glyph glyph-name="endash" unicode="&#x2013;" horiz-adv-x="1024" 
d="M0 772h1024v-178h-1024v178z" />
    <glyph glyph-name="emdash" unicode="&#x2014;" horiz-adv-x="2048" 
d="M0 772h2048v-178h-2048v178z" />
    <glyph glyph-name="quotedblleft" unicode="&#x201c;" horiz-adv-x="725" 
d="M647 1671v-135q-56 -5 -78 -29.5t-22 -83.5v-37h100v-292h-235v311q0 142 54 202.5t181 63.5zM313 1671v-135q-56 -5 -78 -29.5t-22 -83.5v-37h100v-292h-235v311q0 142 54 202.5t181 63.5z" />
    <glyph glyph-name="quotedblright" unicode="&#x201d;" horiz-adv-x="725" 
d="M412 1663h235v-311q0 -141 -53.5 -201.5t-181.5 -64.5v137q56 5 78 29.5t22 82.5v37h-100v291zM78 1663h235v-311q0 -141 -54 -201.5t-181 -64.5v136q56 6 78 30.5t22 82.5v37h-100v291z" />
    <glyph glyph-name="quoteleft" unicode="&#x2018;" horiz-adv-x="391" 
d="M313 1671v-135q-56 -5 -78 -29.5t-22 -83.5v-37h100v-292h-235v311q0 142 54 202.5t181 63.5z" />
    <glyph glyph-name="quoteright" unicode="&#x2019;" horiz-adv-x="391" 
d="M78 1663h235v-311q0 -141 -54 -201.5t-181 -64.5v136q56 6 78 30.5t22 82.5v37h-100v291z" />
    <glyph glyph-name="divide" unicode="&#xf7;" horiz-adv-x="1706" 
d="M854 367q57 0 97 -40.5t40 -97.5q0 -56 -39.5 -95.5t-97.5 -39.5t-97.5 39t-39.5 96t40.5 97.5t96.5 40.5zM254 694h1198v-166h-1198v166zM854 1128q57 0 97 -41t40 -98q0 -56 -39.5 -95.5t-97.5 -39.5t-97.5 39t-39.5 96t40.5 98t96.5 41z" />
    <glyph glyph-name="lozenge" unicode="&#x25ca;" horiz-adv-x="1012" 
d="M506 1409l-385 -817l385 -825l385 825zM506 1653l500 -1061l-500 -1069l-500 1069z" />
    <glyph glyph-name="ydieresis" unicode="&#xff;" horiz-adv-x="621" 
d="M444 -47q-19 -174 -70.5 -222t-180.5 -48h-222v188h138q43 0 59 12t16 43q0 4 -1 13.5t-1 13.5l-162 1403h234l51 -887h14l50 887h233zM348 1448v197h201v-197h-201zM75 1448v197h201v-197h-201z" />
    <glyph glyph-name="Ydieresis" unicode="&#x178;" horiz-adv-x="680" 
d="M-4 1663h276l74 -641l68 641h268l-188 -991v-672h-295v672zM377 1751v197h201v-197h-201zM104 1751v197h201v-197h-201z" />
    <glyph glyph-name="fraction" unicode="&#x2215;" horiz-adv-x="285" 
d="M-47 -8h-164l545 1679h164z" />
    <glyph glyph-name="currency" unicode="&#xa4;" horiz-adv-x="1241" 
d="M623 1176q-120 0 -205.5 -86t-85.5 -205q0 -120 84.5 -204.5t206.5 -84.5q121 0 205.5 84.5t84.5 204.5q0 119 -85.5 205t-204.5 86zM168 1430l203 -203q55 41 117 61.5t133 20.5t134 -20.5t117 -61.5l203 203l94 -93l-204 -204q39 -54 59 -116.5t20 -131.5
q0 -70 -20 -132.5t-59 -115.5l204 -205l-94 -92l-203 205q-57 -42 -118 -62t-131 -20q-72 0 -135 20.5t-117 61.5l-203 -205l-92 92l203 205q-40 53 -60 115.5t-20 132.5q0 69 20 131.5t60 116.5l-203 204z" />
    <glyph glyph-name="guilsinglleft" unicode="&#x2039;" horiz-adv-x="367" 
d="M143 1251h179l-91 -571l91 -576h-179l-90 576z" />
    <glyph glyph-name="guilsinglright" unicode="&#x203a;" horiz-adv-x="367" 
d="M45 1251h178l90 -569l-90 -578h-178l90 578z" />
    <glyph glyph-name="fi" unicode="&#xf001;" horiz-adv-x="772" 
d="M461 1356h244v-1356h-244v1356zM461 1663h244v-174h-244v174zM311 1671h113v-186h-53q-23 0 -34 -16.5t-11 -49.5v-63h96v-189h-96v-1167h-246v1167h-64v189h64v65q0 146 51 198t180 52z" />
    <glyph glyph-name="fl" unicode="&#xf002;" horiz-adv-x="772" 
d="M461 1663h244v-1663h-244v1663zM311 1671h113v-186h-53q-23 0 -34 -16.5t-11 -49.5v-63h96v-189h-96v-1167h-246v1167h-64v189h64v65q0 146 51 198t180 52z" />
    <glyph glyph-name="daggerdbl" unicode="&#x2021;" horiz-adv-x="737" 
d="M238 1663h260v-410h211v-219h-211v-596h211v-219h-211v-409h-260v409h-209v219h209v596h-209v219h209v410z" />
    <glyph glyph-name="periodcentered" unicode="&#xb7;" horiz-adv-x="391" 
d="M197 975q58 0 99.5 -43t41.5 -103q0 -56 -43 -97.5t-102 -41.5q-56 0 -98 42.5t-42 101.5q0 57 43 99t101 42z" />
    <glyph glyph-name="quotesinglbase" unicode="&#x201a;" horiz-adv-x="391" 
d="M78 293h235v-311q0 -142 -54.5 -203.5t-180.5 -62.5v134q55 5 77.5 30t22.5 83v37h-100v293z" />
    <glyph glyph-name="quotedblbase" unicode="&#x201e;" horiz-adv-x="725" 
d="M412 293h235v-313q0 -141 -54.5 -201.5t-180.5 -63.5v135q55 5 77.5 30t22.5 83v37h-100v293zM78 293h235v-313q0 -142 -54 -202t-181 -62v134q55 5 77.5 30t22.5 83v37h-100v293z" />
    <glyph glyph-name="perthousand" unicode="&#x2030;" horiz-adv-x="1950" 
d="M1604 678v-469q0 -24 10 -35.5t31 -11.5t31 11t10 36v469q0 26 -10.5 37.5t-33.5 11.5q-19 0 -28.5 -12.5t-9.5 -36.5zM1405 659q0 160 43 199t197 39q157 0 198 -42t41 -196v-428q0 -158 -43 -198.5t-196 -40.5q-154 0 -197 40t-43 199v428zM1030 678v-469q0 -23 11 -35
t32 -12t30 10.5t9 36.5v469q0 26 -10.5 37.5t-32.5 11.5q-19 0 -29 -12.5t-10 -36.5zM831 659q0 160 43 199t197 39q157 0 198.5 -42t41.5 -196v-428q0 -158 -43 -198.5t-197 -40.5t-197 40t-43 199v428zM268 1452v-469q0 -24 10.5 -35.5t30.5 -11.5q22 0 31.5 11t9.5 36
v469q0 25 -10 36t-33 11q-20 0 -29.5 -11t-9.5 -36zM70 1434q0 158 43 197.5t196 39.5q155 0 197.5 -41t42.5 -196v-428q0 -159 -43 -199.5t-197 -40.5q-152 0 -195.5 40t-43.5 200v428zM508 -8h-164l528 1679h164z" />
    <glyph glyph-name="Acircumflex" unicode="&#xc2;" horiz-adv-x="784" 
d="M383 1333l-45 -758h96l-43 758h-8zM197 1663h378l168 -1663h-276l-21 354h-118l-21 -354h-274zM268 1954h250l119 -217h-185l-59 94l-59 -94h-185z" />
    <glyph glyph-name="Ecircumflex" unicode="&#xca;" horiz-adv-x="590" 
d="M72 1663h454v-217h-170v-424h170v-219h-170v-584h170v-219h-454v1663zM170 1954h250l119 -217h-185l-59 94l-59 -94h-185z" />
    <glyph glyph-name="Aacute" unicode="&#xc1;" horiz-adv-x="784" 
d="M383 1333l-45 -758h96l-43 758h-8zM197 1663h378l168 -1663h-276l-21 354h-118l-21 -354h-274zM381 1954h225l-125 -217h-182z" />
    <glyph glyph-name="Edieresis" unicode="&#xcb;" horiz-adv-x="590" 
d="M72 1663h454v-217h-170v-424h170v-219h-170v-584h170v-219h-454v1663zM332 1751v197h201v-197h-201zM59 1751v197h201v-197h-201z" />
    <glyph glyph-name="Egrave" unicode="&#xc8;" horiz-adv-x="590" 
d="M72 1663h454v-217h-170v-424h170v-219h-170v-584h170v-219h-454v1663zM82 1954h225l80 -217h-180z" />
    <glyph glyph-name="Iacute" unicode="&#xcd;" horiz-adv-x="428" 
d="M72 1663h284v-1663h-284v1663zM203 1954h225l-125 -217h-182z" />
    <glyph glyph-name="Icircumflex" unicode="&#xce;" horiz-adv-x="428" 
d="M72 1663h284v-1663h-284v1663zM90 1954h250l119 -217h-185l-59 94l-59 -94h-185z" />
    <glyph glyph-name="Idieresis" unicode="&#xcf;" horiz-adv-x="428" 
d="M72 1663h284v-1663h-284v1663zM252 1751v197h201v-197h-201zM-21 1751v197h201v-197h-201z" />
    <glyph glyph-name="Igrave" unicode="&#xcc;" horiz-adv-x="428" 
d="M72 1663h284v-1663h-284v1663zM2 1954h225l80 -217h-180z" />
    <glyph glyph-name="Oacute" unicode="&#xd3;" 
d="M346 1380v-1099q0 -38 11 -54t36 -16q24 0 33.5 15t9.5 55v1099q0 40 -11 56t-36 16q-23 0 -33 -16.5t-10 -55.5zM63 1341q0 222 58.5 277t269.5 55q215 0 272.5 -57t57.5 -275v-1019q0 -220 -59 -277t-267 -57q-214 0 -273 57.5t-59 276.5v1019zM379 1954h225l-125 -217
h-182z" />
    <glyph glyph-name="Ocircumflex" unicode="&#xd4;" 
d="M346 1380v-1099q0 -38 11 -54t36 -16q24 0 33.5 15t9.5 55v1099q0 40 -11 56t-36 16q-23 0 -33 -16.5t-10 -55.5zM63 1341q0 222 58.5 277t269.5 55q215 0 272.5 -57t57.5 -275v-1019q0 -220 -59 -277t-267 -57q-214 0 -273 57.5t-59 276.5v1019zM266 1954h250l119 -217
h-185l-59 94l-59 -94h-185z" />
    <glyph glyph-name="apple" unicode="&#xf000;" horiz-adv-x="1618" 
d="M836 1216q-1 6 -1.5 14t-0.5 23q0 124 95 229.5t236 131.5q1 -10 1.5 -23t0.5 -39q0 -131 -103.5 -234.5t-203.5 -103.5h-8q-3 0 -7.5 1t-8.5 1zM1505 403q-114 -247 -205 -342.5t-204 -95.5q-50 0 -131.5 33t-122.5 33q-45 0 -131 -33t-127 -33q-64 0 -128.5 44
t-129.5 132q-102 140 -157.5 295.5t-55.5 300.5q0 219 125 356.5t323 137.5q68 0 155 -34t124 -34q34 0 121.5 35t152.5 35q110 0 198 -40t161 -124q-102 -65 -151.5 -145.5t-49.5 -182.5q0 -113 60 -200t173 -138z" />
    <glyph glyph-name="Ograve" unicode="&#xd2;" 
d="M346 1380v-1099q0 -38 11 -54t36 -16q24 0 33.5 15t9.5 55v1099q0 40 -11 56t-36 16q-23 0 -33 -16.5t-10 -55.5zM63 1341q0 222 58.5 277t269.5 55q215 0 272.5 -57t57.5 -275v-1019q0 -220 -59 -277t-267 -57q-214 0 -273 57.5t-59 276.5v1019zM178 1954h225l80 -217
h-180z" />
    <glyph glyph-name="Uacute" unicode="&#xda;" horiz-adv-x="788" 
d="M66 1663h284v-1382q0 -39 10.5 -55.5t34.5 -16.5t33.5 15.5t9.5 56.5v1382h285v-1344q0 -217 -58.5 -274t-267.5 -57q-214 0 -272.5 57.5t-58.5 273.5v1344zM383 1954h225l-125 -217h-182z" />
    <glyph glyph-name="Ucircumflex" unicode="&#xdb;" horiz-adv-x="788" 
d="M66 1663h284v-1382q0 -39 10.5 -55.5t34.5 -16.5t33.5 15.5t9.5 56.5v1382h285v-1344q0 -217 -58.5 -274t-267.5 -57q-214 0 -272.5 57.5t-58.5 273.5v1344zM270 1954h250l119 -217h-185l-59 94l-59 -94h-185z" />
    <glyph glyph-name="Ugrave" unicode="&#xd9;" horiz-adv-x="788" 
d="M66 1663h284v-1382q0 -39 10.5 -55.5t34.5 -16.5t33.5 15.5t9.5 56.5v1382h285v-1344q0 -217 -58.5 -274t-267.5 -57q-214 0 -272.5 57.5t-58.5 273.5v1344zM182 1954h225l80 -217h-180z" />
    <glyph glyph-name="dotlessi" unicode="&#x131;" horiz-adv-x="379" 
d="M68 1356h243v-1356h-243v1356z" />
    <glyph glyph-name="circumflex" unicode="&#x2c6;" horiz-adv-x="1024" 
d="M387 1651h250l119 -217h-185l-59 94l-59 -94h-185z" />
    <glyph glyph-name="tilde" unicode="&#x2dc;" horiz-adv-x="1024" 
d="M639 1647h133v-60q0 -68 -27 -101.5t-81 -33.5q-15 0 -24.5 1t-18.5 3l-168 27q-2 0 -7.5 1t-7.5 1q-23 0 -37 -13.5t-14 -35.5h-133v61q0 66 27.5 99.5t80.5 33.5q22 0 30 -0.5t14 -1.5l167 -29q2 0 7.5 -1t7.5 -1q23 0 37 13.5t14 36.5z" />
    <glyph glyph-name="macron" unicode="&#xaf;" horiz-adv-x="1024" 
d="M289 1634h440v-174h-440v174z" />
    <glyph glyph-name="breve" unicode="&#x2d8;" horiz-adv-x="1024" 
d="M264 1650l131 1q5 -44 33 -65t84 -21q55 0 84 21t33 65l131 -1q-3 -103 -67 -158.5t-181 -55.5q-116 0 -180.5 56t-67.5 158z" />
    <glyph glyph-name="dotaccent" unicode="&#x2d9;" horiz-adv-x="1024" 
d="M401 1645h220v-211h-220v211z" />
    <glyph glyph-name="ring" unicode="&#x2da;" horiz-adv-x="1024" 
d="M440 1624q-12 0 -18 -11t-6 -34q0 -25 5.5 -35t18.5 -10h146q12 0 18 11t6 34t-6 34t-18 11h-146zM393 1741h238q57 0 78.5 -22.5t21.5 -80.5v-118q0 -58 -22 -80.5t-78 -22.5h-238q-56 0 -78 23t-22 80v118q0 57 22 80t78 23z" />
    <glyph glyph-name="cedilla" unicode="&#xb8;" horiz-adv-x="1024" 
d="M492 0h112q31 -43 45.5 -79t14.5 -68q0 -81 -51 -118.5t-160 -37.5q-15 0 -46 2.5t-47 3.5v147h89q35 0 52 15.5t17 46.5q0 16 -6 37t-20 51z" />
    <glyph glyph-name="hungarumlaut" unicode="&#x2dd;" horiz-adv-x="1024" 
d="M670 1651h211l-162 -217h-160zM391 1651h201l-123 -217h-168z" />
    <glyph glyph-name="ogonek" unicode="&#x2db;" horiz-adv-x="1024" 
d="M434 0h115q-15 -28 -22 -49.5t-7 -38.5q0 -31 17.5 -46.5t52.5 -15.5h88v-147q-16 -1 -47 -3.5t-45 -2.5q-109 0 -160 38t-51 118q0 32 14.5 68t44.5 79z" />
    <glyph glyph-name="caron" unicode="&#x2c7;" horiz-adv-x="1024" 
d="M268 1651h185l59 -95l59 95h185l-119 -217h-250z" />
    <glyph glyph-name="Lslash" unicode="&#x141;" horiz-adv-x="559" 
d="M92 1663h285v-641l117 63v-182l-117 -65v-619h168v-219h-453v713l-92 -51v182l92 51v768z" />
    <glyph glyph-name="lslash" unicode="&#x142;" horiz-adv-x="395" 
d="M76 1663h243v-684l68 35v-164l-68 -31v-819h-243v711l-68 -31v162l68 32v789z" />
    <glyph glyph-name="Scaron" unicode="&#x160;" horiz-adv-x="780" 
d="M717 1341v-251h-283v292q0 38 -11 54t-36 16q-22 0 -31.5 -15.5t-9.5 -54.5v-258q0 -45 13 -64.5t51 -41.5l174 -100q71 -41 102 -96.5t31 -155.5v-347q0 -222 -58 -276.5t-272 -54.5q-209 0 -268.5 57.5t-59.5 273.5v367h287v-405q0 -38 11.5 -55t35.5 -17
q22 0 31.5 16.5t9.5 55.5v352q0 45 -12 63t-51 41l-183 107q-69 40 -99 98t-30 162v237q0 216 59 274t271 58q209 0 268.5 -55.5t59.5 -276.5zM147 1954h185l59 -95l59 95h185l-119 -217h-250z" />
    <glyph glyph-name="scaron" unicode="&#x161;" horiz-adv-x="670" 
d="M51 498h246v-252q0 -36 8.5 -51t28.5 -15q21 0 29.5 13.5t9.5 52.5v239q0 47 -16.5 67t-61.5 46l-115 61q-72 39 -100.5 84t-28.5 162v176q0 173 55 228t242 55q168 0 219 -51.5t51 -255.5v-156h-245v209q0 36 -9 51t-30 15q-20 0 -28.5 -14.5t-8.5 -51.5v-182
q0 -71 78 -115l18 -10l121 -70q58 -33 81 -77.5t23 -145.5v-211q0 -206 -52.5 -256.5t-235.5 -50.5q-174 0 -226.5 51.5t-52.5 255.5v199zM92 1651h185l59 -95l59 95h185l-119 -217h-250z" />
    <glyph glyph-name="Zcaron" unicode="&#x17d;" horiz-adv-x="618" 
d="M63 1663h500v-225l-239 -1205h239v-233h-530v233l239 1205h-209v225zM65 1954h185l59 -95l59 95h185l-119 -217h-250z" />
    <glyph glyph-name="zcaron" unicode="&#x17e;" horiz-adv-x="594" 
d="M74 1356h479v-205l-266 -958h264v-193h-512v213l262 952h-227v191zM53 1651h185l59 -95l59 95h185l-119 -217h-250z" />
    <glyph glyph-name="brokenbar" unicode="&#xa6;" horiz-adv-x="1024" 
d="M424 408h178v-758h-178v758zM424 1432h178v-758h-178v758z" />
    <glyph glyph-name="Eth" unicode="&#xd0;" horiz-adv-x="813" 
d="M358 1446v-438h52v-179h-52v-612q7 0 17.5 -1t13.5 -1q43 0 57.5 14.5t14.5 85.5v1041q0 63 -14.5 77.5t-57.5 14.5q-3 0 -13.5 -1t-17.5 -1zM78 1663h356q198 0 254.5 -58.5t56.5 -279.5v-985q0 -225 -57 -282.5t-252 -57.5h-358v829h-53v179h53v655z" />
    <glyph glyph-name="eth" unicode="&#xf0;" horiz-adv-x="672" 
d="M375 1014q0 37 -8.5 51t-28.5 14q-23 0 -32 -13.5t-9 -51.5v-770q0 -37 9 -51.5t32 -14.5q21 0 29 12t8 54v770zM106 1667h246l49 -94l127 35l58 -119l-121 -33q93 -173 124.5 -276.5t31.5 -208.5v-727q0 -152 -56 -202t-233 -50q-171 0 -225 50t-54 202v768
q0 134 44 192t143 58q23 0 46.5 -4.5t51.5 -13.5q-16 39 -35 77.5t-41 77.5l-127 -35l-57 117l117 30z" />
    <glyph glyph-name="Yacute" unicode="&#xdd;" horiz-adv-x="680" 
d="M-4 1663h276l74 -641l68 641h268l-188 -991v-672h-295v672zM328 1954h225l-125 -217h-182z" />
    <glyph glyph-name="yacute" unicode="&#xfd;" horiz-adv-x="621" 
d="M444 -47q-19 -174 -70.5 -222t-180.5 -48h-222v188h138q43 0 59 12t16 43q0 4 -1 13.5t-1 13.5l-162 1403h234l51 -887h14l50 887h233zM299 1651h225l-125 -217h-182z" />
    <glyph glyph-name="Thorn" unicode="&#xde;" horiz-adv-x="780" 
d="M356 1182v-607h25q39 0 52 16t13 87v399q0 75 -13 90t-56 15h-21zM72 1663h284v-264h70q190 0 246.5 -58t56.5 -280v-363q0 -224 -57.5 -282t-249.5 -58h-66v-358h-284v1663z" />
    <glyph glyph-name="thorn" unicode="&#xfe;" horiz-adv-x="686" 
d="M389 1094q0 8 -1 16.5t-1 9.5q0 16 -10 27.5t-25 11.5q-22 0 -31.5 -15t-9.5 -50v-832q0 -37 9 -51t30 -14t30 15t9 50v832zM68 1663h243v-365q32 32 68 49t72 17q99 0 140.5 -65t41.5 -252v-736q0 -182 -41 -250.5t-135 -68.5q-41 0 -78 16.5t-68 48.5v-374h-243v1980z
" />
    <glyph glyph-name="minus" unicode="&#x2212;" horiz-adv-x="1706" 
d="M254 696h1198v-170h-1198v170z" />
    <glyph glyph-name="multiply" unicode="&#xd7;" horiz-adv-x="1706" 
d="M403 1188l459 -459l461 459l117 -117l-459 -461l459 -458l-117 -119l-461 461l-459 -461l-116 119l458 458l-458 461z" />
    <glyph glyph-name="onesuperior" unicode="&#xb9;" horiz-adv-x="369" 
d="M141 1663h152v-997h-189v735h-94v133q57 6 91 39.5t40 89.5z" />
    <glyph glyph-name="twosuperior" unicode="&#xb2;" horiz-adv-x="516" 
d="M477 1468v-127q0 -36 -7.5 -68t-25.5 -69l-194 -403h227v-135h-432v135l215 444q15 33 20.5 56t6.5 51v141q0 24 -7 33.5t-24 9.5q-14 0 -20.5 -10t-6.5 -33v-174h-188v149q0 135 39.5 168t177.5 33q143 0 181 -37t38 -164z" />
    <glyph glyph-name="threesuperior" unicode="&#xb3;" horiz-adv-x="516" 
d="M475 1468v-106q0 -75 -20.5 -110t-69.5 -48q50 -14 70 -46.5t20 -110.5v-187q0 -130 -40.5 -164t-174.5 -34q-140 0 -179.5 34t-39.5 164v211h188v-235q0 -22 7 -31.5t22 -9.5t22 9.5t7 31.5v256q0 19 -10.5 30t-28.5 11h-68v143h68q22 0 30.5 10t8.5 39v168
q0 23 -7.5 33t-23.5 10q-14 0 -20.5 -9.5t-6.5 -33.5v-154h-188v129q0 134 40 167.5t179 33.5q135 0 175 -35.5t40 -165.5z" />
    <glyph glyph-name="onequarter" unicode="&#xbc;" horiz-adv-x="1128" 
d="M866 766l-55 -375h70v375h-15zM786 932h265v-541h49v-123h-49v-268h-177v268h-223v123zM303 -8h-164l545 1679h164zM135 1663h144v-932h-179v686h-92v125q55 5 88 36.5t39 84.5z" />
    <glyph glyph-name="onehalf" unicode="&#xbd;" horiz-adv-x="1128" 
d="M1090 750v-119q0 -34 -7 -63t-24 -64l-185 -377h216v-127h-412v127l205 414l3 6q21 46 23 91v134q0 22 -6.5 30.5t-21.5 8.5t-22 -9t-7 -30v-162h-176v140q0 126 37 156t168 30q136 0 172.5 -34.5t36.5 -151.5zM303 -8h-164l545 1679h164zM135 1663h144v-932h-179v686
h-92v125q55 5 88 36.5t39 84.5z" />
    <glyph glyph-name="threequarters" unicode="&#xbe;" horiz-adv-x="1270" 
d="M1010 766l-56 -375h70v375h-14zM930 932h264v-541h49v-123h-49v-268h-176v268h-223v123zM446 -8h-163l544 1679h164zM453 1481v-101q0 -69 -19.5 -102t-64.5 -45q47 -13 65.5 -42.5t18.5 -103.5v-176q0 -121 -38.5 -152.5t-166.5 -31.5q-133 0 -171 32.5t-38 151.5v199
h178v-219q0 -21 7 -30t22 -9t21.5 9t6.5 30v237q0 19 -10 29t-28 10h-64v133h64q21 0 29.5 10t8.5 38v155q0 21 -6.5 30t-21.5 9t-22 -9t-7 -30v-143h-178v121q0 123 38.5 154.5t170.5 31.5q128 0 166.5 -32.5t38.5 -153.5z" />
    <glyph glyph-name="franc" unicode="&#x20a3;" horiz-adv-x="1229" 
d="M76 1663h454v-217h-170v-424h170v-219h-170v-803h-284v1663zM1203 1047v-242h-232v291q0 36 -9 50.5t-30 14.5t-30 -14t-9 -51v-1096h-243v1354h243v-56q29 31 65.5 48.5t69.5 17.5q95 0 135 -66t40 -251z" />
    <glyph glyph-name="Gbreve" unicode="&#x11e;" horiz-adv-x="788" 
d="M63 1339q0 221 61 277.5t273 56.5q208 0 268 -58t60 -276v-245h-285v286q0 43 -10.5 57.5t-36.5 14.5q-25 0 -36 -15t-11 -57v-1099q0 -39 11.5 -54.5t37.5 -15.5q25 0 35 14.5t10 55.5v362h-43v219h328v-862h-119l-47 96q-45 -60 -99 -84t-145 -24q-135 0 -193.5 65
t-58.5 221v1065zM147 1953l131 1q5 -44 33 -65t84 -21q55 0 84 21t33 65l131 -1q-3 -103 -67 -158.5t-181 -55.5q-116 0 -180.5 56t-67.5 158z" />
    <glyph glyph-name="gbreve" unicode="&#x11f;" horiz-adv-x="686" 
d="M375 1094q0 36 -9 50.5t-30 14.5t-30 -14t-9 -51v-830q0 -37 8.5 -51t28.5 -14q23 0 32 13t9 52v830zM375 1298v56h243v-1438q0 -133 -50.5 -183t-196.5 -50h-308v188h244q7 0 15.5 1t9.5 1q24 0 33.5 11.5t9.5 45.5v127q-29 -30 -65.5 -46.5t-73.5 -16.5q-99 0 -141 65
t-42 252v736q0 188 42 252.5t143 64.5q35 0 71 -17.5t66 -48.5zM96 1650l131 1q5 -44 33 -65t84 -21q55 0 84 21t33 65l131 -1q-3 -103 -67 -158.5t-181 -55.5q-116 0 -180.5 56t-67.5 158z" />
    <glyph glyph-name="Idotaccent" unicode="&#x130;" horiz-adv-x="428" 
d="M72 1663h284v-1663h-284v1663zM104 1948h220v-211h-220v211z" />
    <glyph glyph-name="Scedilla" unicode="&#x15e;" horiz-adv-x="780" 
d="M717 1341v-251h-283v292q0 38 -11 54t-36 16q-22 0 -31.5 -15.5t-9.5 -54.5v-258q0 -45 13 -64.5t51 -41.5l174 -100q71 -41 102 -96.5t31 -155.5v-347q0 -222 -58 -276.5t-272 -54.5q-209 0 -268.5 57.5t-59.5 273.5v367h287v-405q0 -38 11.5 -55t35.5 -17
q22 0 31.5 16.5t9.5 55.5v352q0 45 -12 63t-51 41l-183 107q-69 40 -99 98t-30 162v237q0 216 59 274t271 58q209 0 268.5 -55.5t59.5 -276.5zM371 0h112q31 -43 45.5 -79t14.5 -68q0 -81 -51 -118.5t-160 -37.5q-15 0 -46 2.5t-47 3.5v147h89q35 0 52 15.5t17 46.5
q0 16 -6 37t-20 51z" />
    <glyph glyph-name="scedilla" unicode="&#x15f;" horiz-adv-x="670" 
d="M51 498h246v-252q0 -36 8.5 -51t28.5 -15q21 0 29.5 13.5t9.5 52.5v239q0 47 -16.5 67t-61.5 46l-115 61q-72 39 -100.5 84t-28.5 162v176q0 173 55 228t242 55q168 0 219 -51.5t51 -255.5v-156h-245v209q0 36 -9 51t-30 15q-20 0 -28.5 -14.5t-8.5 -51.5v-182
q0 -71 78 -115l18 -10l121 -70q58 -33 81 -77.5t23 -145.5v-211q0 -206 -52.5 -256.5t-235.5 -50.5q-174 0 -226.5 51.5t-52.5 255.5v199zM316 0h112q31 -43 45.5 -79t14.5 -68q0 -81 -51 -118.5t-160 -37.5q-15 0 -46 2.5t-47 3.5v147h89q35 0 52 15.5t17 46.5q0 16 -6 37
t-20 51z" />
    <glyph glyph-name="Cacute" unicode="&#x106;" horiz-adv-x="772" 
d="M721 1341v-245h-285v284q0 40 -11 56t-36 16q-23 0 -33 -16.5t-10 -55.5v-1099q0 -38 11 -54t36 -16q24 0 33.5 15t9.5 55v424h285v-383q0 -220 -59 -277t-267 -57q-214 0 -273 57.5t-59 276.5v1019q0 222 58.5 277t269.5 55q215 0 272.5 -57t57.5 -275zM375 1954h225
l-125 -217h-182z" />
    <glyph glyph-name="cacute" unicode="&#x107;" horiz-adv-x="672" 
d="M621 1102v-299h-246v303q0 39 -9 53.5t-30 14.5q-22 0 -30.5 -13.5t-8.5 -54.5v-856q0 -39 9 -54.5t30 -15.5t30 14t9 56v332h246v-330q0 -158 -55.5 -209t-233.5 -51q-171 0 -225 51.5t-54 208.5v850q0 160 55 211t228 51q174 0 229.5 -52.5t55.5 -209.5zM324 1651h225
l-125 -217h-182z" />
    <glyph glyph-name="Ccaron" unicode="&#x10c;" horiz-adv-x="772" 
d="M721 1341v-245h-285v284q0 40 -11 56t-36 16q-23 0 -33 -16.5t-10 -55.5v-1099q0 -38 11 -54t36 -16q24 0 33.5 15t9.5 55v424h285v-383q0 -220 -59 -277t-267 -57q-214 0 -273 57.5t-59 276.5v1019q0 222 58.5 277t269.5 55q215 0 272.5 -57t57.5 -275zM143 1954h185
l59 -95l59 95h185l-119 -217h-250z" />
    <glyph glyph-name="ccaron" unicode="&#x10d;" horiz-adv-x="672" 
d="M621 1102v-299h-246v303q0 39 -9 53.5t-30 14.5q-22 0 -30.5 -13.5t-8.5 -54.5v-856q0 -39 9 -54.5t30 -15.5t30 14t9 56v332h246v-330q0 -158 -55.5 -209t-233.5 -51q-171 0 -225 51.5t-54 208.5v850q0 160 55 211t228 51q174 0 229.5 -52.5t55.5 -209.5zM92 1651h185
l59 -95l59 95h185l-119 -217h-250z" />
    <glyph glyph-name="dcroat" unicode="&#x111;" horiz-adv-x="698" 
d="M383 1085q0 38 -9 52t-30 14t-30 -15t-9 -51v-823q0 -37 8.5 -51t28.5 -14q22 0 31.5 15t9.5 50v823zM383 1663h244v-92h57v-135h-57v-1436h-244v57q-29 -30 -65.5 -46.5t-73.5 -16.5q-100 0 -141.5 64.5t-41.5 252.5v725q0 184 40.5 251t136.5 67q40 0 76.5 -16
t68.5 -48v146h-107v135h107v92z" />
    <glyph glyph-name="sfthyphen" unicode="&#xad;" horiz-adv-x="512" 
d="M55 793h400v-220h-400v220z" />
    <glyph glyph-name="periodcentered" unicode="&#x2219;" horiz-adv-x="391" 
d="M197 975q58 0 99.5 -43t41.5 -103q0 -56 -43 -97.5t-102 -41.5q-56 0 -98 42.5t-42 101.5q0 57 43 99t101 42z" />
    </font>
</defs>
</svg>
